<?xml version="1.0" standalone="no"?>
<!DOCTYPE svg PUBLIC "-//W3C//DTD SVG 1.1//EN" "http://www.w3.org/Graphics/SVG/1.1/DTD/svg11.dtd" >
<svg xmlns="http://www.w3.org/2000/svg" xmlns:xlink="http://www.w3.org/1999/xlink" version="1.1">
<metadata>
Created by FontForge 20170910 at Sat Aug 25 06:57:38 2012
 By Jimmy Wärting
Copyright by Aleksander Shevchuk at 2010 year.
</metadata>
<defs>
<font id="Untitled" horiz-adv-x="552" >
  <font-face
    font-family="AleksandraC"
    font-weight="400"
    font-stretch="normal"
    units-per-em="2048"
    panose-1="2 0 0 0 0 0 0 0 0 0"
    ascent="1536"
    descent="-512"
    x-height="1116"
    cap-height="1536"
    bbox="0 -430 1892 1866"
    underline-thickness="102"
    underline-position="-204"
    unicode-range="U+000D-E000"
  />
<missing-glyph horiz-adv-x="748"
d="M68 0v1365h544v-1365h-544zM136 68h408v1229h-408v-1229z" />
    <glyph glyph-name=".notdef" horiz-adv-x="748"
d="M68 0v1365h544v-1365h-544zM136 68h408v1229h-408v-1229z" />
    <glyph glyph-name="glyph1" horiz-adv-x="2048"
 />
    <glyph glyph-name="glyph1" horiz-adv-x="2048"
 />
    <glyph glyph-name="uni000D" unicode="&#xd;" horiz-adv-x="2048"
 />
    <glyph glyph-name="space" unicode=" " horiz-adv-x="706"
 />
    <glyph glyph-name="exclam" unicode="!" horiz-adv-x="536"
d="M164 0h158l51 160h-160zM195 1501l170 62l-23 -1270h-127z" />
    <glyph glyph-name="quotedbl" unicode="&#x22;" horiz-adv-x="774"
d="M164 1219l16 331h164l-88 -331h-92zM430 1219l16 331h164l-88 -331h-92z" />
    <glyph glyph-name="numbersign" unicode="#" horiz-adv-x="1646"
d="M123 442l51 160h354l93 318h-406l51 159h408l127 443l160 49l-127 -492h176l118 457h177l-134 -457h353l-51 -159h-355l-92 -318h406l-52 -160h-407l-139 -442h-160l139 442h-176l-139 -442h-162l139 442h-352zM688 602h178l92 318h-178z" />
    <glyph glyph-name="dollar" unicode="$" horiz-adv-x="1157"
d="M102 150l19 249q5 -12 14 -32t42 -71t72 -91t104.5 -74.5t138.5 -38.5v676q-91 -1 -160 24t-107.5 62t-62.5 88.5t-31.5 95t-7.5 88.5q0 104 30.5 183.5t84 127t116.5 73t138 32.5v154l139 22v-178q79 -9 149.5 -34.5t101.5 -46.5l31 -21l13 -248q-3 8 -9.5 22
t-31.5 51.5t-55.5 68t-84 61t-114.5 41.5v-560q106 1 187.5 -25.5t129 -66.5t77 -96t40 -107t10.5 -106q0 -196 -111 -323.5t-333 -155.5v-158l-139 -22v174q-67 2 -132 19.5t-109.5 41t-79.5 46.5t-52 39zM260 1126q0 -103 64 -177t168 -81v570q-232 -29 -232 -312z
M631 100q105 20 175 76t100 130.5t30 166.5q0 148 -79 225.5t-226 77.5v-676z" />
    <glyph glyph-name="percent" unicode="%" horiz-adv-x="1460"
d="M164 1206q0 63 17 122t50 109.5t90.5 81.5t131.5 31q76 0 133.5 -30.5t90 -82t48.5 -110t16 -121.5t-17.5 -122.5t-51 -110t-90.5 -81t-129 -30.5q-59 0 -108 20.5t-82 54t-55.5 78.5t-33 93t-10.5 98zM205 0l887 1536h161l-886 -1536h-162zM289 1204q0 -43 7 -81
t23.5 -75t50.5 -59t83 -22q48 0 82 22t50.5 59t23.5 75t7 81q0 238 -163 238q-164 0 -164 -238zM719 330q0 50 10 98t33 93t55.5 78.5t82 54t108.5 20.5q76 0 133.5 -30.5t90 -81.5t48.5 -109.5t16 -122.5q0 -62 -17.5 -121.5t-51 -110t-90.5 -81.5t-129 -31
q-73 0 -130.5 31t-91 81.5t-50.5 110t-17 121.5zM844 328q0 -43 7 -81t23.5 -75.5t50.5 -59.5t83 -22q48 0 82 22t50.5 59.5t23.5 75.5t7 81q0 35 -3 64t-13 63t-27 56.5t-47.5 38t-72.5 15.5q-164 0 -164 -237z" />
    <glyph glyph-name="ampersand" unicode="&#x26;" horiz-adv-x="1394"
d="M164 451q0 272 176 385v12q-2 1 -14 11t-16.5 13.5t-16.5 15t-18 19.5t-16.5 23.5t-16 29t-13 34t-11 41.5t-6.5 48.5t-3 57.5q0 133 67 227t180 138t261 44q85 0 153 -10.5t105 -26t62 -31t33 -26.5l7 -10l29 -182q-5 7 -14.5 19t-45 42t-76.5 52.5t-109.5 41.5
t-143.5 19q-89 0 -159.5 -27t-108 -64t-62 -81.5t-32 -75t-7.5 -49.5q0 -68 17.5 -124.5t42.5 -87.5t50 -52.5t42 -28.5l18 -8q-9 -3 -23.5 -9.5t-51.5 -36.5t-65.5 -69t-51.5 -112t-23 -162q0 -86 33 -153t81 -104.5t108.5 -62.5t109 -33t90.5 -8q196 0 322 109v569h-410
l37 119h598l-37 -119h-49v-518q-2 -6 -6 -15.5t-20.5 -36.5t-38 -52t-60 -55.5t-83.5 -52.5t-112 -37t-143 -15q-106 0 -193 19t-144 49.5t-99.5 73.5t-65 84t-36.5 89t-17.5 81.5t-3.5 68.5z" />
    <glyph glyph-name="quotesingle" unicode="'" horiz-adv-x="507"
d="M164 1219l16 331h164l-88 -331h-92z" />
    <glyph glyph-name="parenleft" unicode="(" horiz-adv-x="720"
d="M164 582q0 114 21 218.5t56 182.5t76 143t85.5 109.5t80.5 71.5t64 39l51 -93q-11 -8 -34 -30t-70.5 -83.5t-86 -134t-69 -187t-31.5 -236.5q1 -128 29.5 -244t67 -190t83 -132t72.5 -82.5t39 -29.5l-61 -82q-39 17 -84 53t-97.5 102t-94 148t-69.5 202.5t-28 254.5z" />
    <glyph glyph-name="parenright" unicode=")" horiz-adv-x="720"
d="M123 -96q11 5 39 29.5t72.5 82.5t83 132t67 190t29.5 244q-1 122 -31.5 236.5t-69 187t-86 134t-70.5 83.5t-34 30l51 93q28 -12 64 -39t80.5 -71.5t85.5 -109.5t76 -143t56 -182.5t21 -218.5q0 -134 -28 -254.5t-69.5 -202.5t-94 -148t-97.5 -102t-84 -53z" />
    <glyph glyph-name="asterisk" unicode="*" horiz-adv-x="835"
d="M164 1223v116l133 -10l4 8l-104 82l82 82l77 -102l9 4l-7 133h117l-4 -133l8 -4l78 102l82 -82l-104 -82l4 -8l133 10v-116l-133 12l-4 -8l104 -84l-82 -82l-76 104l-8 -4l2 -133h-117l4 133l-8 4l-75 -104l-82 82l104 84l-4 8z" />
    <glyph glyph-name="plus" unicode="+" horiz-adv-x="1126"
d="M164 725l49 160h270v268l160 51v-319h320l-50 -160h-270v-270l-160 -49v319h-319z" />
    <glyph glyph-name="comma" unicode=","
d="M164 -152l29 89q36 -18 67 3t43 60h-125l51 160h160q-39 -119 -51 -160q-43 -137 -174 -152z" />
    <glyph glyph-name="hyphen" unicode="-" horiz-adv-x="790"
d="M164 479l49 160h414l-52 -160h-411z" />
    <glyph glyph-name="period" unicode="."
d="M170 0l51 160h160l-51 -160h-160z" />
    <glyph glyph-name="slash" unicode="/" horiz-adv-x="1048"
d="M0 0l887 1536h162l-887 -1536h-162z" />
    <glyph glyph-name="zero" unicode="0" horiz-adv-x="1306"
d="M102 768q0 178 30 314t82.5 223.5t130 143t165 78.5t195.5 23q86 0 160.5 -17t143.5 -53.5t122.5 -98t93.5 -146.5t61 -203.5t21 -263.5q0 -176 -30 -311.5t-82.5 -223.5t-129.5 -144t-165 -79.5t-195 -23.5q-84 0 -158.5 17.5t-143.5 55t-123 100t-94.5 147t-62 202
t-21.5 260.5zM246 768q6 -165 26.5 -269.5t69.5 -191.5l639 1043q-111 88 -276 88q-456 0 -459 -670zM430 184q46 -46 119.5 -70t155.5 -24q108 0 189.5 36t142.5 114.5t93 211t33 316.5q-5 157 -27 265t-69 202z" />
    <glyph glyph-name="one" unicode="1" horiz-adv-x="954"
d="M102 0v104h330v1303h-12l-232 -184l37 192l207 121h141v-1432h279v-104h-750z" />
    <glyph glyph-name="two" unicode="2" horiz-adv-x="1216"
d="M123 0v104q1 77 11.5 145.5t26 122.5t43 103.5t53 85t65 71t69.5 58.5t77 50t77 42l78 39q58 28 87 43.5t75.5 44t70.5 53t50 60t37 78.5t11 94q0 42 -19 83t-57.5 78t-109 60t-162.5 23q-61 0 -128 -22t-119 -54t-95 -63.5t-66 -53.5l-24 -22l29 204q7 5 21 13.5
t57.5 29.5t88.5 37t110 29.5t126 13.5q72 0 139.5 -11.5t132 -38t111.5 -66.5t76 -102t29 -138q0 -94 -28.5 -167t-76 -121t-109.5 -86.5t-131 -72t-137.5 -69t-131 -85t-111 -112.5t-77.5 -159t-30 -218h789v-104h-928z" />
    <glyph glyph-name="three" unicode="3" horiz-adv-x="1282"
d="M123 174l29 180q2 -6 6 -15.5t20.5 -36.5t37 -52t57.5 -55.5t79.5 -52.5t105.5 -37t134 -15q29 0 66.5 8.5t82.5 25t86.5 46t76.5 67.5t56 93.5t21 120.5q0 84 -22.5 148.5t-57.5 99t-72 51t-73 16.5q-10 0 -79.5 1t-131.5 1l-252 -2l31 117q78 -4 221 -4q52 0 107 2
t63 2q25 0 52.5 7t58 25.5t54.5 46.5t40 74.5t16 104.5q0 14 -2 31.5t-9.5 47.5t-20.5 57.5t-39 58t-60 52t-87 36t-118 14.5q-75 0 -145.5 -16.5t-117 -40t-82.5 -47t-53 -40.5l-16 -16l31 182q3 4 10.5 10t37.5 21.5t69 27.5t110 21.5t156 9.5q224 0 348.5 -103.5
t124.5 -305.5q0 -49 -10.5 -90.5t-25 -68.5t-35.5 -51.5t-37.5 -36.5t-37 -26.5t-26.5 -19.5v-12q29 -19 50 -35t55 -52t56 -74t39 -97.5t17 -126.5q0 -30 -2 -58.5t-13.5 -78t-31 -90t-59 -87t-93 -78t-137.5 -52.5t-188 -21t-191 19.5t-136.5 47t-84 55t-46.5 46.5z" />
    <glyph glyph-name="four" unicode="4" horiz-adv-x="1257"
d="M61 383v139l762 1014h140v-1014h151l-39 -139h-112v-383h-140v383h-762zM236 522h587v783h-12l-575 -770v-13z" />
    <glyph glyph-name="five" unicode="5" horiz-adv-x="1261"
d="M143 135l25 215q5 -11 15 -28.5t47.5 -62t82 -79t121 -62.5t162.5 -28q27 0 56.5 4t69 15.5t75 30.5t71.5 52t62 75.5t42.5 106.5t16.5 140q0 211 -90 318.5t-233 107.5q-66 0 -129.5 -21.5t-106.5 -52t-77 -61.5t-50 -53l-16 -21l-113 41l88 764h782v-139h-659l-53 -484
h12q50 62 119 98t190 36q102 0 188.5 -32t154 -95.5t105.5 -167.5t38 -238q0 -31 -3 -64.5t-16 -88t-34.5 -102.5t-62.5 -99.5t-96 -88.5t-140 -61t-189 -24q-86 0 -164.5 15.5t-129 37.5t-89 43.5t-55.5 37.5z" />
    <glyph glyph-name="six" unicode="6" horiz-adv-x="1308"
d="M123 516q0 285 12 533q1 27 2 41.5t7 56.5t15.5 71.5t29 75t45 77.5t66.5 68t91 58.5t121 37.5t154 15t157 -14.5t120 -35t80.5 -40.5t48.5 -34l15 -15l-26 -168q-4 8 -11.5 21t-39.5 46.5t-72.5 59.5t-112.5 47t-157 21q-180 0 -282 -95t-112 -294q-10 -138 -10 -205h12
q92 198 383 198q107 0 202 -35t167.5 -100.5t115 -166.5t42.5 -224q0 -110 -31 -204t-93.5 -168t-165.5 -116t-237 -42q-65 0 -131 13t-141 49.5t-132 93t-94.5 153.5t-37.5 221zM260 516q0 -99 27.5 -176t69.5 -123t98.5 -75.5t108.5 -40.5t106 -11q111 0 187 31.5
t116.5 92t57 133t16.5 169.5q0 110 -42.5 204.5t-130.5 156t-204 61.5q-105 0 -185.5 -34.5t-128.5 -94.5t-72 -134t-24 -159z" />
    <glyph glyph-name="seven" unicode="7" horiz-adv-x="1081"
d="M20 1415v121h1041v-113q-13 -8 -35 -25.5t-86.5 -81t-124 -139.5t-134 -205t-130.5 -274q-44 -116 -75 -290.5t-40 -291.5l-10 -116h-147q5 49 14 128.5t43 266.5t74 303q32 92 69.5 175t74.5 146t76 118t74.5 94t68.5 71t60 51.5t47 33t31 19.5l11 5v12z" />
    <glyph glyph-name="eight" unicode="8" horiz-adv-x="1286"
d="M123 451q0 130 78.5 235t183.5 156v12q-84 49 -141.5 126.5t-57.5 184.5q0 93 39.5 168.5t105.5 121.5t147 70.5t169 24.5q199 0 321 -112.5t122 -272.5q0 -86 -54.5 -172.5t-134.5 -138.5v-12q107 -57 184.5 -164t77.5 -227q0 -97 -30 -179t-91 -147t-163 -102t-236 -37
q-64 0 -129.5 12t-137.5 45t-126.5 83t-90.5 134t-36 191zM260 451q0 -77 26.5 -140t67 -103t93 -67.5t101.5 -39t95 -11.5q102 0 178.5 31t119.5 84t64 115t21 131q0 85 -44 164t-130 131.5t-193 52.5q-184 0 -291.5 -103t-107.5 -245zM324 1165q0 -80 52.5 -145.5
t124.5 -98t142 -32.5q77 0 138.5 24.5t97.5 65t54.5 88t18.5 98.5q0 42 -14 85.5t-45 87.5t-91.5 72t-142.5 28q-95 0 -164.5 -26.5t-104.5 -69.5t-50.5 -87t-15.5 -90z" />
    <glyph glyph-name="nine" unicode="9" horiz-adv-x="1306"
d="M123 1018q0 79 19.5 154.5t62 144t103 120.5t148.5 82.5t193 30.5q64 0 131 -14t141 -51.5t131 -94.5t94.5 -153.5t37.5 -218.5q0 -262 -13 -531q-8 -187 -84 -302q-132 -199 -446 -199q-83 0 -157 14.5t-120.5 34.5t-81 40.5t-48.5 34.5l-15 15l27 168q4 -8 11.5 -22
t39.5 -49t72.5 -61.5t112.5 -48.5t157 -22q179 0 281 98.5t112 298.5q10 133 10 205h-12q-93 -200 -381 -200q-107 0 -202.5 35.5t-167.5 101t-114 166t-42 223.5zM260 1018q0 -110 42.5 -204t130.5 -155t204 -61q105 0 185.5 34.5t128.5 94.5t72 133.5t24 157.5
q0 96 -27.5 172t-69.5 121.5t-98.5 75t-108.5 40.5t-106 11q-85 0 -151.5 -24t-108 -63t-68.5 -94.5t-38 -113.5t-11 -125z" />
    <glyph glyph-name="colon" unicode=":"
d="M170 0l51 160h160l-51 -160h-160zM170 956l51 160h160l-51 -160h-160z" />
    <glyph glyph-name="semicolon" unicode=";"
d="M164 -152l29 89q36 -18 67 3t43 60h-125l51 160h160q-39 -119 -51 -160q-43 -137 -174 -152zM170 956l51 160h160l-51 -160h-160z" />
    <glyph glyph-name="less" unicode="&#x3c;" horiz-adv-x="876"
d="M102 788l512 512l140 -77l-447 -428v-15l447 -428l-140 -78z" />
    <glyph glyph-name="equal" unicode="=" horiz-adv-x="1126"
d="M164 508l49 160h750l-50 -160h-749zM164 860l49 160h750l-50 -160h-749z" />
    <glyph glyph-name="greater" unicode="&#x3e;" horiz-adv-x="876"
d="M123 371l446 428v14l-446 428l139 78l512 -512l-512 -514z" />
    <glyph glyph-name="question" unicode="?" horiz-adv-x="1052"
d="M123 1161l12 260q6 5 16.5 14t46.5 31t75.5 39t101 31t125.5 14q66 0 125.5 -12t116 -40.5t97.5 -72t66 -111t25 -151.5q0 -142 -66.5 -229.5t-226.5 -163.5q-41 -20 -77.5 -66t-57 -104t-6.5 -126.5t69 -123.5l-174 -53q-4 7 -9.5 20.5t-17 54t-15.5 81t4 97t32.5 107
t78 105.5t132.5 98q110 61 153.5 134.5t43.5 168.5q0 58 -13.5 105.5t-45 90t-91 66t-143.5 23.5q-58 0 -110 -16t-89 -41t-68 -56t-51 -61.5t-33.5 -55.5t-19.5 -41zM344 0l51 160h160l-49 -160h-162z" />
    <glyph glyph-name="at" unicode="@" horiz-adv-x="1728"
d="M102 768q0 213 99.5 392.5t275 284.5t387.5 105q157 0 298 -60.5t241 -163.5t160 -244.5t63 -299.5v-45q-4 -86 -23 -157.5t-44.5 -116t-56 -76.5t-55 -46.5t-44.5 -18.5q-70 -16 -117 -7q-24 5 -45 24t-30 35l-9 17h-24q-48 -60 -88 -85t-99 -34q-48 -12 -121 -12
q-100 -2 -174 14t-117.5 44t-69.5 70t-35 84t-9 95q0 84 60.5 151.5t142.5 102.5q72 31 184.5 57t169.5 29q86 8 86 94q0 26 -4 58q-11 49 -26 70q-57 76 -249 59q-34 -3 -66 -10.5t-58 -19t-49 -24t-43 -29t-34.5 -29t-29 -30t-22 -26.5t-17 -22.5t-10.5 -14.5l16 170
q3 5 10 13.5t33.5 31t58.5 40t87.5 34t119.5 20.5q94 6 168.5 -5.5t121 -34.5t77 -58t42.5 -72t13 -80q17 -376 17 -495q8 -139 75 -139q34 0 80 62t70 151q4 25 3.5 42.5t-3 54.5t-2.5 56q0 176 -81 328.5t-225 244t-317 91.5q-130 0 -246 -54t-198 -144.5t-130 -212
t-48 -253.5q0 -131 49.5 -256t133 -219t202 -151.5t247.5 -57.5q81 0 161.5 18t138 43.5t103 51t68.5 43.5l23 18l-35 -192q-5 -3 -14.5 -9t-47.5 -21t-85.5 -26t-131 -20.5t-180.5 -9.5q-159 0 -302.5 62t-246 166.5t-163 249.5t-60.5 304zM600 557q0 -75 20 -109
q51 -83 261 -83q40 0 73 5t57 11.5t42.5 19.5t30 22t20.5 27.5t12.5 27t6 28.5t2.5 24.5t1 22.5l-14 299h-12q-2 -5 -5.5 -12t-20.5 -19.5t-40 -15.5q-8 -1 -57 -8t-82 -12.5t-80.5 -16t-85 -25t-61.5 -32.5q-27 -21 -47.5 -60.5t-20.5 -83.5v-10z" />
    <glyph glyph-name="A" unicode="A" horiz-adv-x="1323"
d="M123 0q0 289 17.5 522t46 392t72 277.5t88.5 185.5t102 107.5t106 53t107 12.5q54 0 100 -11.5t103 -50.5t102 -105t90 -184t75.5 -276.5t49 -394.5t18.5 -528h-156q1 87 1 163q0 227 -9 353h-745q-7 -76 -9 -205q-2 -92 -2 -165v-55l1 -91h-158zM297 629h735
q-14 165 -42 304t-72.5 255.5t-112 183t-150.5 66.5q-50 0 -93.5 -25.5t-76 -68t-60 -106t-47 -131t-35.5 -153t-26.5 -161t-19.5 -164.5z" />
    <glyph glyph-name="B" unicode="B" horiz-adv-x="1263"
d="M164 0v1536q44 4 114 9q64 5 203 4q15 1 29 1q160 0 252 -20q73 -14 127 -43.5t84 -63t48.5 -79.5t24.5 -82t9 -82q1 -13 1 -25q0 -96 -35 -175q-39 -89 -110 -122v-12q110 -30 187.5 -124t81.5 -233q1 -17 1 -33q1 -186 -95 -306q-104 -130 -289 -150q-122 -14 -280 -14
t-255 7zM305 106q35 -4 93 -9q52 -5 170 -5h24q136 0 223 19q83 18 142 74t84 127q23 65 23 136v14q-2 79 -31 145.5t-87.5 111.5t-136.5 49q-195 10 -274 10l-230 -2v-670zM305 895q97 -4 234 -4h59.5t27 1t16 2t24.5 3.5t55 5.5q95 10 142.5 79t47.5 183q0 85 -37.5 154.5
t-111.5 89.5q-78 22 -192 27q-57 2 -104.5 2t-85.5 -2l-75 -6v-535z" />
    <glyph glyph-name="C" unicode="C" horiz-adv-x="1236"
d="M123 768q0 171 29.5 305t81.5 223t128 146.5t164.5 82.5t194.5 25q70 0 132 -9.5t100.5 -22.5t67 -26t40.5 -22l12 -10l-24 -174q-4 6 -11.5 16.5t-36.5 36.5t-63.5 46t-93 36.5t-123.5 16.5q-215 0 -334.5 -166.5t-120.5 -503.5q1 -179 34 -311t95 -211.5t145.5 -117.5
t190.5 -38q55 0 114.5 18t105.5 44t84 52t59 44l20 18l-20 -168q-4 -5 -12.5 -12.5t-40 -26.5t-69.5 -34t-103 -27t-138 -12q-107 0 -196 24.5t-166.5 81.5t-131 145.5t-84 223t-30.5 307.5z" />
    <glyph glyph-name="D" unicode="D" horiz-adv-x="1308"
d="M164 0v1536q123 14 299 14q177 0 307.5 -42t225.5 -133t142.5 -242.5t47.5 -364.5q0 -211 -48 -362.5t-143 -243t-225.5 -134t-306.5 -42.5q-101 0 -175.5 3.5t-99.5 6.5zM305 96q35 -6 158 -6q576 0 579 678q-1 175 -30.5 297t-97 207.5t-178.5 125.5t-273 40
q-84 0 -158 -4v-1338z" />
    <glyph glyph-name="E" unicode="E" horiz-adv-x="1177"
d="M164 0v1536h880l-20 -113h-721v-542h610l-26 -113h-584v-664h752v-104h-891z" />
    <glyph glyph-name="F" unicode="F" horiz-adv-x="1003"
d="M164 0v1536h840l-21 -113h-680v-542h569l-26 -113h-543v-768h-139z" />
    <glyph glyph-name="G" unicode="G" horiz-adv-x="1277"
d="M123 768q0 782 598 782q70 0 132 -9.5t100.5 -22.5t67 -26t40.5 -22l12 -10l-24 -174q-4 6 -11.5 16.5t-36.5 36.5t-63.5 46t-93 36.5t-123.5 16.5q-216 0 -336 -166.5t-121 -503.5q3 -670 467 -670q120 0 264 82v551h-333l12 105h461v-611q-2 -5 -6.5 -13.5t-21.5 -33.5
t-37 -47.5t-54.5 -50t-73.5 -47.5t-94.5 -33.5t-116.5 -13.5q-107 0 -196 24.5t-166.5 81.5t-131 145.5t-84 223t-30.5 307.5z" />
    <glyph glyph-name="H" unicode="H" horiz-adv-x="1382"
d="M164 0v1524l141 24v-698h774v686h140v-1536h-140v737h-774v-737h-141z" />
    <glyph glyph-name="I" unicode="I" horiz-adv-x="839"
d="M164 0v115l186 -13v1321l-186 -12v125h512v-125l-187 12v-1321l187 13v-115h-512z" />
    <glyph glyph-name="J" unicode="J" horiz-adv-x="851"
d="M82 307l158 45q-15 -54 -15 -97q0 -57 26 -96q46 -69 126 -69q81 0 126.5 77t45.5 181v1075l-338 -12v125h477v-1184q0 -33 -2.5 -62.5t-10 -68t-20.5 -70t-36 -63t-53.5 -53.5t-76 -35.5t-100.5 -13.5q-76 0 -133 19.5t-89.5 49.5t-52 74.5t-26 86t-6.5 91.5z" />
    <glyph glyph-name="K" unicode="K" horiz-adv-x="1327"
d="M164 0v1524l139 24v-678q50 -3 105.5 -3t117.5 3q137 9 199 150q15 34 64.5 163t92.5 241l42 112h159q-188 -455 -221 -539q-39 -97 -119 -147v-12q81 -19 147 -94.5t99 -170.5l195 -573h-162l-172 563q-12 38 -24.5 63t-35 50t-58.5 38.5t-87 16.5q-63 4 -148.5 4
t-139.5 -2l-54 -2v-731h-139z" />
    <glyph glyph-name="L" unicode="L" horiz-adv-x="1155"
d="M164 0v1524l139 24v-1442l758 17l12 -123h-909z" />
    <glyph glyph-name="M" unicode="M" horiz-adv-x="1529"
d="M168 0v1536h135l455 -784h14l455 784h133v-1536h-133v1303h-15l-381 -672h-135l-381 672h-12v-1303h-135z" />
    <glyph glyph-name="N" unicode="N" horiz-adv-x="1337"
d="M164 0v1536h139l719 -1237h12v1237h140v-1536h-140l-717 1237h-14v-1237h-139z" />
    <glyph glyph-name="O" unicode="O" horiz-adv-x="1359"
d="M102 768q0 178 27.5 313.5t76.5 224t122.5 143.5t159 78t192.5 23t192.5 -23t159 -78t122 -143.5t76 -224t27.5 -313.5q0 -220 -41 -374.5t-119.5 -242.5t-180 -126.5t-236.5 -38.5q-107 0 -192.5 23.5t-159 79.5t-122.5 144.5t-76.5 223t-27.5 311.5zM246 768
q1 -185 29 -316.5t84.5 -210.5t135 -115t185.5 -36t185.5 36t135 115t84.5 210.5t29 316.5q-1 352 -110 511t-324 159t-324 -159t-110 -511z" />
    <glyph glyph-name="P" unicode="P" horiz-adv-x="1241"
d="M164 0v1536q11 1 31 2.5t79 5.5q60 2 118 4q35 1 77 1h59q78 -1 144 -7q78 -6 141.5 -22t126 -53t105 -93t68.5 -146t26 -208q0 -331 -113 -477t-346 -146q-84 0 -152.5 8t-106 19t-63 22t-33.5 19l-8 8h-12v-473h-141zM305 563q5 -2 14.5 -5.5t46 -13t79 -16.5
t115 -12.5t153.5 -5.5q161 0 223.5 118t62.5 382q0 92 -15 160.5t-39 111t-62.5 71.5t-76 42.5t-89.5 23.5q-96 17 -199 18h-22q-87 0 -136 -7l-55 -7v-860z" />
    <glyph glyph-name="Q" unicode="Q" horiz-adv-x="1359"
d="M102 768q0 178 27.5 313.5t76.5 224t122.5 143.5t159 78t192.5 23t192.5 -23t159 -78t122 -143.5t76 -224t27.5 -313.5q0 -220 -41 -374.5t-119.5 -242.5t-180 -126.5t-236.5 -38.5q-107 0 -192.5 23.5t-159 79.5t-122.5 144.5t-76.5 223t-27.5 311.5zM246 768
q1 -185 29 -316.5t84.5 -210.5t135 -115t185.5 -36q59 0 134.5 19.5t105.5 48.5l-322 446l141 96l258 -487q72 77 93.5 193.5t23.5 361.5q-1 352 -110 511t-324 159t-324 -159t-110 -511z" />
    <glyph glyph-name="R" unicode="R" horiz-adv-x="1339"
d="M164 0v1536q32 2 83 5t203 8q59 2 111 1q81 0 144 -4q84 -3 148 -16t126 -46t101.5 -86t64 -141t24.5 -206q0 -141 -44 -223t-134 -132v-14q88 -76 119 -227q39 -173 107 -455h-140q-60 239 -106 436q-10 37 -16 56.5t-21 50t-32.5 46.5t-47.5 30t-68 16q-4 1 -39 1
t-97 2t-124 7q-81 7 -133.5 21t-64.5 24l-13 10h-12v-700h-139zM303 784q11 -4 37 -9t141.5 -14t272.5 -9q138 0 207 76.5t69 209.5q0 388 -299 396q-122 4 -229 4q-36 0 -65 1q-58 0 -88 -1l-46 -2v-652z" />
    <glyph glyph-name="S" unicode="S" horiz-adv-x="1163"
d="M102 147l17 252q2 -6 7 -17.5t23 -43.5t38.5 -61.5t55 -65.5t72.5 -62t91 -43.5t110 -17.5q110 0 193.5 31t132.5 85t73.5 122t24.5 147q0 165 -98 243q-78 62 -207 62q-33 0 -70 -4q-41 -4 -79 -4q-62 0 -114 12q-84 20 -129.5 57.5t-74 92.5t-37 102t-8.5 96
q0 92 25 165.5t66 120.5t98 78t117 43.5t126 12.5q63 0 123.5 -11t102 -26.5t74 -31t47.5 -26.5l16 -11l12 -250q-4 10 -12 27t-39.5 60.5t-70 77t-106.5 60.5t-147 27q-295 0 -295 -316q0 -116 80 -194q69 -66 170 -65q17 0 35 1q47 4 91 4q74 0 136 -12q98 -20 155 -61.5
t93 -100.5t48.5 -114.5t12.5 -114.5q0 -107 -34 -195t-102 -153.5t-177 -102t-252 -36.5q-71 0 -140 16.5t-116.5 40t-84.5 47.5t-55 40z" />
    <glyph glyph-name="T" unicode="T" horiz-adv-x="1124"
d="M41 1409v127h1042v-127l-452 14v-1423h-139v1423z" />
    <glyph glyph-name="U" unicode="U" horiz-adv-x="1413"
d="M164 766v756l141 22v-778q1 -249 43.5 -397.5t129 -214.5t229.5 -66q212 0 305 154t94 524v778l143 -22v-756q0 -178 -24 -311.5t-67.5 -222.5t-111.5 -144t-150 -78.5t-189 -23.5t-189 23.5t-150 78.5t-112 144t-68 222.5t-24 311.5z" />
    <glyph glyph-name="V" unicode="V" horiz-adv-x="1280"
d="M102 1524l144 22v-51q0 -5 -1 -15q0 -36 2 -116q2 -100 6.5 -197t17 -228t30.5 -244t49 -228t70.5 -196t97.5 -132t127 -51q68 0 125 50t95 134t68.5 193.5t47.5 230.5t29 242t16 230.5t6 193.5q1 56 1 97v37l-1 50l146 -22q0 -226 -10.5 -417.5t-29 -336t-46.5 -261
t-58.5 -197.5t-69.5 -141t-76.5 -94.5t-82.5 -55.5t-83 -28t-83 -7q-41 0 -76.5 6t-80 26.5t-81.5 54t-77 92.5t-71.5 139t-60.5 197t-48 262t-30.5 339t-11.5 422z" />
    <glyph glyph-name="W" unicode="W" horiz-adv-x="1994"
d="M102 1524l146 24v-218q9 -664 119 -989q85 -251 225 -251q76 0 135.5 79t93.5 205.5t58 279.5t32 306q8 154 12 280q3 102 3 172v33l-2 79l145 24l4 -228q22 -687 137 -1005q81 -225 203 -225q76 0 135 79.5t93.5 207.5t58.5 282t32.5 308t12.5 282q3 102 3 173v34l-1 80
h145q0 -290 -15 -522t-38.5 -392t-60.5 -277.5t-76.5 -185.5t-91.5 -108t-98.5 -52.5t-104.5 -12.5q-48 0 -92 19.5t-94.5 77t-90 149.5t-73.5 250t-51 366h-15q-4 -154 -20.5 -281t-40 -215t-56.5 -155t-66.5 -106t-74 -63.5t-75 -33t-72.5 -8.5q-41 0 -75 6.5t-75 27
t-74 54.5t-68.5 93.5t-62.5 140t-52 197.5t-41.5 261.5t-26 337t-9.5 420.5z" />
    <glyph glyph-name="X" unicode="X" horiz-adv-x="1296"
d="M61 0l525 793v12l-486 731h183l370 -610h13l368 610h183l-486 -731v-12l524 -793h-182l-407 672h-13l-409 -672h-183z" />
    <glyph glyph-name="Y" unicode="Y" horiz-adv-x="1198"
d="M102 1524l146 22q0 -11 1.5 -31t7.5 -80.5t14 -119.5t24 -139t36 -149t51 -139t67.5 -119.5t87 -80.5t108.5 -31q73 0 134.5 49t100 127.5t68.5 173t45.5 189.5t24.5 173.5t12 127.5l2 49l146 -22q0 -171 -29.5 -323.5t-77 -262.5t-109 -194.5t-125.5 -131.5t-126 -61
v-551h-142v551q-43 8 -93 42.5t-102.5 91.5t-101 142.5t-86.5 187t-61 234t-23 275.5z" />
    <glyph glyph-name="Z" unicode="Z" horiz-adv-x="1196"
d="M61 0v102l879 1317v13l-795 -11v115h969v-104l-878 -1315v-15l878 13v-115h-1053z" />
    <glyph glyph-name="bracketleft" unicode="[" horiz-adv-x="706"
d="M164 -2v1538h420v-139h-271v-1293h265v-106h-414z" />
    <glyph glyph-name="backslash" unicode="\" horiz-adv-x="1048"
d="M0 1536h162l887 -1536h-162z" />
    <glyph glyph-name="bracketright" unicode="]" horiz-adv-x="706"
d="M123 1397v139h420v-1538h-414v106h264v1293h-270z" />
    <glyph glyph-name="asciicircum" unicode="^" horiz-adv-x="790"
d="M102 1356l293 293l293 -293l-78 -148l-209 248h-12l-209 -248z" />
    <glyph glyph-name="underscore" unicode="_" horiz-adv-x="1744"
d="M164 -158l51 160h1366l-51 -160h-1366z" />
    <glyph glyph-name="a" unicode="a" horiz-adv-x="1202"
d="M113 305q0 122 54 199t179 131q110 48 408 76q86 8 86 92q0 37 -4 69q-1 3 -2 9q-6 29 -14.5 48.5t-34 49t-83.5 41.5q-34 7 -78 7q-29 0 -63 -3q-82 -7 -164 -38t-123 -58l-41 -27l17 154q3 2 10 6.5t33.5 15t58.5 20t87.5 18.5t119.5 13q27 2 52 2q63 0 115 -11
q74 -15 120.5 -43t77 -68t42.5 -80.5t13 -83.5q16 -471 16 -580t74 -125q39 -11 49 -50q3 -11 2 -21q0 -26 -18 -48q-18 -21 -46 -21q-11 0 -24 3q-91 25 -110 115h-13q-48 -60 -88 -85t-98 -34q-2 0 -27 -2.5t-63 -5.5t-70 -4h-26q-424 0 -424 319zM254 295q0 -31 4.5 -55
t23.5 -54t51.5 -49.5t94 -33t145.5 -13.5q70 0 123.5 14.5t83 35t47.5 48t23.5 49.5t5.5 44h2l-14 374h-13q-2 -5 -5.5 -12t-20 -20t-39.5 -17q-5 -1 -60.5 -7t-93 -12t-91.5 -16t-94.5 -24.5t-64.5 -32.5q-66 -51 -87 -98.5t-21 -120.5z" />
    <glyph glyph-name="b" unicode="b" horiz-adv-x="1136"
d="M164 0v1532l139 22v-503h12q66 79 236 79q227 0 345 -146t118 -404q0 -128 -22 -229t-61.5 -169t-95 -112.5t-120 -64t-140.5 -19.5q-82 0 -170 20.5t-112 56.5h-12l-5 -63h-112zM303 152q3 -3 9.5 -7t31.5 -14.5t54.5 -19t80 -15t107.5 -6.5q56 0 102 21t75.5 53
t51.5 78.5t33.5 89.5t18.5 94.5t8.5 84.5t1.5 69q0 203 -80.5 324.5t-235.5 121.5q-46 0 -89.5 -9.5t-72.5 -23t-52 -27t-33 -22.5l-11 -10v-782z" />
    <glyph glyph-name="c" unicode="c" horiz-adv-x="1019"
d="M104 567v17q0 117 26 211q28 101 74 162.5t107 101.5t119 55.5t117 15.5q68 0 129.5 -9t101 -22t69.5 -26t43 -22l13 -9l-31 -159q-3 6 -10 16t-33 35t-58.5 44.5t-88.5 35.5q-53 15 -113 14h-8q-319 -4 -319 -445v-14q3 -178 17 -246q30 -149 145 -200q73 -33 186 -33
q57 0 111.5 19t92 46t67 54t43.5 46l14 19l-21 -178q-3 -4 -10.5 -11.5t-34.5 -26.5t-60 -33.5t-90 -26.5t-122 -12q-96 0 -172 22t-125 53t-84 85t-52.5 97t-27.5 112.5t-12 107.5t-3 104z" />
    <glyph glyph-name="d" unicode="d" horiz-adv-x="1136"
d="M164 580q0 258 118 404t345 146q169 0 235 -79h12v503l140 -22v-1532h-113l-4 63h-12q-24 -36 -112.5 -56.5t-170.5 -20.5q-76 0 -140.5 19.5t-120 64t-94.5 112.5t-61 169t-22 229zM301 580q0 -36 1.5 -69t8.5 -84.5t18.5 -94.5t33.5 -89.5t51.5 -78.5t75.5 -53t102 -21
q90 0 160.5 15.5t95.5 30.5l26 16v782q-4 4 -11 10t-32.5 22t-53 28t-71.5 22t-90 10q-104 0 -176 -58t-105.5 -156.5t-33.5 -231.5z" />
    <glyph glyph-name="e" unicode="e" horiz-adv-x="1110"
d="M102 569q0 127 22.5 224.5t60 159.5t93.5 102t117.5 56.5t136.5 18.5h24q212 0 328 -101q124 -107 124 -324q0 -29 -3 -67t-7 -62l-3 -23l-751 -10q0 -66 6.5 -123t27 -120t53.5 -107.5t91 -73.5t135 -29t147.5 18t116 43.5t79.5 51t50 43.5l15 18l-31 -174
q-5 -4 -15 -11t-45.5 -25t-76.5 -32t-108.5 -25t-141.5 -11q-85 0 -153.5 21t-114 54.5t-79.5 83.5t-52 99t-29 111t-14 109.5t-3 104.5zM244 655l635 11v15q0 59 -7 105q-8 52 -30 98.5t-59.5 76.5t-97 47.5t-140.5 17.5q-301 0 -301 -371z" />
    <glyph glyph-name="f" unicode="f" horiz-adv-x="813"
d="M61 991v125h252q-1 9 -2 24.5t1 60.5t9 86t26.5 91.5t49 86.5t80.5 60.5t117 24.5q46 0 85.5 -12t56.5 -24l16 -13l-41 -129q-6 7 -16 18t-41.5 29.5t-61.5 18.5q-46 0 -77 -33t-43 -80.5t-17 -94.5q-4 -34 -4 -61q0 -11 1 -20l1 -33h274v-125l-274 13v-1004h-140v1004z
" />
    <glyph glyph-name="g" unicode="g" horiz-adv-x="1138"
d="M123 537q0 143 20.5 248.5t56.5 171t93 105t121 54t149 14.5q65 0 154 -24t127 -55h14l4 65h113v-1093q0 -55 -7.5 -98.5t-35 -93t-73.5 -82.5t-129.5 -55t-197.5 -22q-72 0 -151 11t-123 23l-43 11l37 160q14 -10 39 -25.5t101 -41t151 -25.5q151 0 222 61.5t71 161.5
v49h-13q-90 -71 -235 -71q-248 0 -356.5 127t-108.5 424zM260 537q0 -243 72 -345t246 -102q73 0 137.5 11t92.5 23l28 11v832q-17 7 -46 16.5t-104.5 26t-134.5 16.5q-47 0 -86.5 -11t-68 -26.5t-51 -44t-36.5 -52.5t-24 -64.5t-15 -66.5t-7.5 -71.5t-2.5 -67v-65.5v-20z
" />
    <glyph glyph-name="h" unicode="h" horiz-adv-x="1179"
d="M164 0v1532l139 22v-495h14q99 71 256 71q111 0 190 -24.5t128 -67.5t77 -114.5t38 -151t10 -192.5v-580h-139v580q0 51 -1 85.5t-4 77.5t-9 71.5t-16.5 60.5t-25.5 53t-37 41.5t-50.5 31.5t-66 18t-83.5 7q-73 0 -143 -14t-104 -28l-34 -13v-391v-580h-139z" />
    <glyph glyph-name="i" unicode="i" horiz-adv-x="507"
d="M164 1391l35 145h145l-35 -145h-145zM174 0v1106l139 22v-1128h-139z" />
    <glyph glyph-name="j" unicode="j" horiz-adv-x="483"
d="M0 -293l29 154q101 -39 126 -39q29 0 37 36q5 25 5 79v1169l139 22v-1169q0 -160 -72 -217q-52 -41 -169 -41q-43 0 -95 6zM180 1391l35 145h145l-34 -145h-146z" />
    <glyph glyph-name="k" unicode="k" horiz-adv-x="1118"
d="M164 0v1532l139 22v-895l207 3q36 0 70 12q44 17 83.5 64t53.5 96q9 28 25.5 98.5t29.5 127.5l12 56h136q-50 -211 -68 -293q-28 -110 -125 -198v-13q61 -40 104 -103t56 -134l88 -375h-156q-43 293 -74 367q-27 65 -57.5 107t-73.5 58q-32 13 -69 13l-242 2v-547h-139z
" />
    <glyph glyph-name="l" unicode="l" horiz-adv-x="507"
d="M184 0v1532l140 22v-1554h-140z" />
    <glyph glyph-name="m" unicode="m" horiz-adv-x="1746"
d="M164 0v1104l112 24l7 -137h12q104 139 260 139q71 0 128.5 -14.5t89 -35t53.5 -40.5t29 -34l7 -15h15q4 6 11.5 15t35 33t60.5 42.5t88 33.5t116 15q112 0 198.5 -34.5t141.5 -112.5t55 -192v-791h-139v795q0 98 -75.5 164.5t-176.5 66.5q-55 0 -101.5 -12.5t-74 -31
t-46.5 -36.5t-26 -30l-8 -13v-903h-137v772q0 108 -65 181t-181 73q-48 0 -91.5 -12.5t-71 -31t-48.5 -36.5t-30 -30l-9 -13v-903h-139z" />
    <glyph glyph-name="n" unicode="n" horiz-adv-x="1210"
d="M164 0v592v512l110 24l9 -137h14q4 6 12 15t34.5 33t55.5 42.5t73 33.5t89 15q138 0 227.5 -26.5t149 -91.5t84.5 -169t25 -263v-580h-140v580q0 254 -70.5 350t-265.5 96q-51 0 -97.5 -12.5t-76 -31t-52 -36.5t-32.5 -30l-10 -13v-323v-580h-139z" />
    <glyph glyph-name="o" unicode="o" horiz-adv-x="1114"
d="M82 571q0 152 39 264t107.5 174.5t151 91.5t181.5 29q221 0 346 -149.5t125 -409.5q0 -91 -12 -170t-44.5 -157.5t-83.5 -133.5t-136 -89.5t-195 -34.5q-68 0 -132.5 17.5t-128.5 60.5t-111.5 108t-77 167.5t-29.5 231.5zM219 571q0 -111 21.5 -197t55.5 -138.5t81.5 -86
t95 -46.5t100.5 -13q61 0 110 16t82 42t57.5 66t38 79.5t21.5 91t10.5 93.5t2.5 93q0 71 -9 133.5t-32 122.5t-58.5 103t-92.5 69.5t-130 26.5q-83 0 -147.5 -30t-102.5 -75.5t-62.5 -108.5t-33 -121t-8.5 -120z" />
    <glyph glyph-name="p" unicode="p" horiz-adv-x="1097"
d="M164 -430v1534l112 24l7 -77h12q23 38 110.5 58.5t169.5 20.5q96 0 174 -32t139 -100t94.5 -185t33.5 -276q0 -258 -119 -404.5t-346 -146.5q-169 0 -236 80h-12v-474zM303 182q4 -4 11 -10t32.5 -22t53 -28t71.5 -22t90 -10q155 0 236.5 122.5t81.5 324.5q0 35 -1.5 69
t-8.5 85t-18.5 94t-34 89t-52 78.5t-75 53t-101.5 20.5q-57 0 -107.5 -6.5t-81.5 -15t-54 -17.5t-33 -15l-9 -7v-783z" />
    <glyph glyph-name="q" unicode="q" horiz-adv-x="1138"
d="M123 537q0 159 33.5 276t94.5 185t138.5 100t173.5 32q83 0 170.5 -20.5t110.5 -58.5h12l6 65h113v-1546l-139 22v474h-13q-67 -80 -235 -80q-227 0 -346 146.5t-119 404.5zM260 537q0 -202 81.5 -324.5t236.5 -122.5q46 0 89.5 9.5t72.5 23t52 27t34 22.5l10 10v783
q-9 7 -28 17t-92.5 27t-164.5 17q-56 0 -101.5 -20.5t-75 -53t-52 -78.5t-34 -89t-18.5 -94t-8.5 -85t-1.5 -69z" />
    <glyph glyph-name="r" unicode="r" horiz-adv-x="784"
d="M205 0v1104l131 26l8 -149h12q3 6 9.5 16t31 36t53.5 45.5t77.5 35.5t103.5 16h82l-25 -157q-3 2 -8 4.5t-23 7t-38 5t-51 -6.5t-64 -22q-42 -20 -74 -42t-47.5 -40t-25 -33t-11.5 -23l-2 -8v-815h-139z" />
    <glyph glyph-name="s" unicode="s" horiz-adv-x="1105"
d="M123 117l20 184q4 -9 13.5 -23t44.5 -50.5t77.5 -64t115.5 -50.5t157 -23q61 0 109 10.5t78 25.5t51.5 40t32 44.5t16 50.5t6 45.5t0.5 40.5v9q0 12 -2.5 29.5t-18 53.5t-43 61.5t-85.5 39.5q-32 8 -69 8q-31 0 -67 -5q-58 -7 -106 -7q-47 0 -85 6q-78 14 -125.5 57.5
t-69 100t-21.5 127.5q0 17 1 32.5t9 48.5t22.5 59.5t44.5 58t70.5 53.5t106.5 36.5t147 14.5q86 0 158 -14t101 -28l30 -13l37 -186q-4 6 -12.5 15t-38.5 32.5t-65 41.5t-92.5 33t-119.5 15q-109 0 -165 -35t-85 -96q-15 -37 -15 -74q0 -33 13 -65q14 -34 46.5 -57t84.5 -33
q24 -5 53 -4q34 0 76 6q49 7 93 7q54 -1 100 -11q84 -20 133 -66t73.5 -107t24.5 -133q0 -372 -430 -372q-77 0 -150 13.5t-121.5 32.5t-86 38.5t-55.5 33.5z" />
    <glyph glyph-name="t" unicode="t" horiz-adv-x="835"
d="M102 991v125h224l6 414l141 24l-8 -438h260v-125l-260 13l-4 -664q0 -43 1 -70t4.5 -59.5t11 -51.5t19.5 -36.5t31 -25t45 -7.5q41 0 75 16.5t48 33.5l13 16l24 -131q-5 -4 -15.5 -10.5t-51.5 -17.5t-93 -11q-80 0 -130.5 21.5t-76.5 70.5t-35 109.5t-9 156.5l4 660z" />
    <glyph glyph-name="u" unicode="u" horiz-adv-x="1185"
d="M164 344v760l141 24v-788q0 -28 7.5 -58.5t28.5 -65.5t51.5 -62.5t82.5 -45.5t117 -18q68 0 123.5 13t85 31t49.5 36.5t26 31.5l7 13v901h139v-1116h-131l-8 119h-13q-2 -5 -6.5 -14t-25 -32t-49.5 -40.5t-84.5 -32t-124.5 -14.5q-93 0 -167.5 25.5t-119.5 64t-75.5 88
t-42 94.5t-11.5 86z" />
    <glyph glyph-name="v" unicode="v" horiz-adv-x="1167"
d="M104 1050v62l142 25v-36.5t4.5 -95t10.5 -141t18.5 -163.5t28.5 -175t42.5 -164t58.5 -141t77 -94.5t98 -36.5t98 36t77 96.5t58.5 139t43 165.5t28.5 173.5t18 165t10 139t5 96.5v36l141 -25q-3 -3 1 -62q1 -17 1 -38q0 -51 -8 -123q-11 -102 -22.5 -220t-48.5 -239.5
t-85 -220t-130.5 -161t-186.5 -62.5q-100 0 -181 62t-129.5 161.5t-84.5 219.5t-51.5 240t-24 219.5t-9.5 161.5z" />
    <glyph glyph-name="w" unicode="w" horiz-adv-x="1679"
d="M84 1074v38l141 25l6 -192q28 -551 139 -754q55 -101 128 -101q56 0 104 105.5t77.5 255.5t50.5 300t30 255l8 106l141 25l25 -235q77 -627 187 -773q30 -39 61 -39q55 0 99.5 57.5t72 150t48 204t30 223.5t15 204.5t6.5 150.5l1 57l141 -25q-3 -3 1 -62q2 -20 1 -46
q1 -48 -5 -115q-8 -102 -17.5 -220t-41 -239.5t-73 -220t-114 -161t-164.5 -62.5q-78 0 -140 62t-100.5 170t-61 236.5t-30.5 278.5h-14q-57 -747 -338 -747q-69 0 -127.5 38.5t-99 103.5t-72.5 149.5t-51.5 178t-33 187t-19 178t-8.5 149.5t-3 104z" />
    <glyph glyph-name="x" unicode="x" horiz-adv-x="1103"
d="M61 0l398 567v13l-377 536h186l277 -442h14l277 442h186l-377 -536v-13l397 -567h-186l-299 471h-12l-299 -471h-185z" />
    <glyph glyph-name="y" unicode="y" horiz-adv-x="1185"
d="M164 356v748l141 22v-774q0 -28 7.5 -59.5t28 -68.5t51.5 -66t82.5 -48.5t115.5 -19.5q77 0 135.5 7.5t87 18t46 21t21.5 17.5l3 8v954h139v-1118q0 -52 -3.5 -93t-15 -86t-31 -78t-53 -64.5t-79 -51t-111.5 -31.5t-149 -12q-74 0 -143 12.5t-113.5 30t-78.5 35.5t-49 30
l-16 13l31 133q5 -6 15.5 -15t46 -32.5t76 -41.5t106 -33t135.5 -15q158 0 225.5 54.5t67.5 178.5v129h-13q-2 -3 -6 -8t-25 -18t-49.5 -23t-84.5 -18t-125 -8q-78 0 -143 18.5t-109 50t-77 69.5t-51.5 80.5t-27 80t-8.5 71.5z" />
    <glyph glyph-name="z" unicode="z" horiz-adv-x="1083"
d="M123 0v104l647 895v13l-602 -13v117h778v-104l-645 -895v-13l660 13v-117h-838z" />
    <glyph glyph-name="braceleft" unicode="{" horiz-adv-x="692"
d="M102 791l12.5 2.5t30 11t43 23t45.5 41t43 62t30.5 89t12.5 119.5q0 55 6 102t15 80.5t25 64.5t29.5 49.5t35.5 39t35.5 30.5t37.5 26.5t34 24.5l32 -47q-36 -30 -59 -73t-33.5 -96t-14 -98t-3.5 -103q0 -65 -11 -117.5t-27.5 -86t-40.5 -60t-43.5 -42t-43.5 -30.5
q-2 -1 -3.5 -2t-3.5 -2t-3 -2v-11q176 -116 176 -385q0 -81 6 -139.5t31.5 -126t72.5 -106.5l-32 -47q-8 6 -39 27.5t-44 33t-39 37t-39 52t-28.5 65.5t-22 90.5t-6.5 113.5q0 65 -12 121.5t-31 95t-42 70t-46.5 50t-42.5 31.5t-31 17z" />
    <glyph glyph-name="bar" unicode="|" horiz-adv-x="466"
d="M164 -193v1895l139 24v-1894z" />
    <glyph glyph-name="braceright" unicode="}" horiz-adv-x="692"
d="M123 29q47 39 72.5 106.5t31.5 126t6 139.5q0 268 177 385v11q-65 43 -90 69q-87 92 -87 273q0 58 -3.5 103t-14 98t-33.5 96t-59 73l33 47q10 -7 34 -24t37.5 -27t35.5 -30.5t35 -39t29 -49.5t25 -64.5t15 -80.5t6 -102q0 -65 12 -119.5t31 -89.5t42.5 -62t46.5 -41
t42 -22.5t31 -10.5l12 -3l-12.5 -5t-30 -17t-43 -31.5t-45.5 -50t-43 -70.5t-30.5 -94.5t-12.5 -121.5q0 -55 -6 -102t-15 -81t-25 -65t-29 -49.5t-35.5 -39.5t-35 -30.5t-37.5 -27t-34 -24.5z" />
    <glyph glyph-name="asciitilde" unicode="~" horiz-adv-x="1048"
d="M102 551q219 219 478 70q53 -30 99.5 -42.5t78.5 -11t63.5 17t49 30t40.5 38.5l35 -30q-26 -70 -89.5 -117.5t-153 -55.5t-193.5 50q-82 47 -185 48.5t-190 -34.5z" />
    <glyph glyph-name="uni00A0" unicode="&#xa0;" horiz-adv-x="706"
 />
    <glyph glyph-name="copyright" unicode="&#xa9;" horiz-adv-x="1728"
d="M102 768q0 214 99 393t274 284t387 105t388 -105t276 -284.5t100 -392.5t-100 -392.5t-276 -284.5t-388 -105t-387 105t-274 284t-99 393zM242 774q0 -131 47.5 -256t129 -219t198 -151.5t245.5 -57.5q172 0 317 97t226.5 254t81.5 333t-81.5 328.5t-226 244t-317.5 91.5
q-130 0 -246 -54t-197.5 -144.5t-129 -212t-47.5 -253.5zM418 776q-2 115 29 208t79.5 149.5t110 94.5t117.5 53t106 15q67 0 128.5 -10.5t100.5 -25.5t69 -30t43 -26l13 -10l-28 -168q-3 7 -10 18.5t-33.5 41t-59 52t-89.5 40t-122 16.5q-74 -1 -132.5 -31.5t-92.5 -75.5
t-56 -103.5t-29.5 -109t-6.5 -96.5q1 -70 10.5 -129.5t33.5 -117.5t62 -98t99 -64.5t141 -24.5q57 0 111.5 22t91.5 53.5t65.5 62.5t42.5 53l13 22l-21 -184q-3 -5 -9.5 -14t-33 -32t-58.5 -40.5t-88.5 -32t-121.5 -14.5q-81 0 -149.5 20t-116.5 53t-85.5 78.5t-60 93.5
t-37 102t-20.5 99.5t-6 89.5z" />
    <glyph glyph-name="guillemotleft" unicode="&#xab;" horiz-adv-x="1290"
d="M102 561l512 512l140 -78l-447 -428v-14l447 -428l-140 -78zM475 561l512 512l139 -78l-446 -428v-14l446 -428l-139 -78z" />
    <glyph glyph-name="uni00AD" unicode="&#xad;" horiz-adv-x="790"
d="M164 479l49 160h414l-52 -160h-411z" />
    <glyph glyph-name="registered" unicode="&#xae;" horiz-adv-x="1726"
d="M102 768q0 213 99.5 392.5t275 284.5t387.5 105t387 -105t274 -284t99 -393t-99 -393t-274 -284t-387 -105t-387.5 105t-275 284.5t-99.5 392.5zM242 774q0 -131 48 -256t129.5 -219t198.5 -151.5t246 -57.5t245.5 57.5t198 151.5t129.5 219t48 256q0 177 -80.5 329
t-224 243.5t-316.5 91.5q-130 0 -246 -54t-198 -144.5t-130 -212t-48 -253.5zM545 315v922q11 5 33 11.5t103 18t177 11.5q173 0 282 -88.5t109 -204.5q0 -52 -9 -93.5t-21 -66.5t-33 -47t-35.5 -32t-38.5 -25q-7 -4 -10 -6v-13q45 -40 79.5 -101.5t47.5 -125.5
q8 -44 35 -160h-138q-20 77 -25 93t-14 49q-22 86 -44 122q-61 100 -230 107q-33 1 -61.5 9.5t-41.5 16.5l-12 9h-14v-406h-139zM684 805q5 -4 16 -10t59.5 -15.5t112.5 -9.5q144 0 194 41t50 166q0 90 -74 138t-192 48q-44 0 -85.5 -6t-60.5 -12l-20 -6v-334z" />
    <glyph glyph-name="guillemotright" unicode="&#xbb;" horiz-adv-x="1290"
d="M164 125l446 428v14l-446 428l139 78l512 -512l-512 -514zM537 125l446 428v14l-446 428l139 78l512 -512l-512 -514z" />
    <glyph glyph-name="afii10023" unicode="&#x401;" horiz-adv-x="1177"
d="M164 0v1536h880l-20 -113h-721v-542h610l-26 -113h-584v-664h752v-104h-891zM399 1720l35 146h144l-35 -146h-144zM678 1720l35 146h143l-35 -146h-143z" />
    <glyph glyph-name="afii10017" unicode="&#x410;" horiz-adv-x="1363"
d="M143 0q0 289 17.5 522t46 392t72 277.5t88.5 185.5t102 107.5t106 53t107 12.5q54 0 100 -11.5t103 -50.5t102.5 -105t90.5 -184t75 -276.5t49 -394.5t19 -528h-156q4 348 -8 516h-746q-7 -76 -9.5 -205t-1.5 -220l1 -91h-158zM317 629h736q-14 165 -42 304t-72.5 255.5
t-112 183t-150.5 66.5q-50 0 -93.5 -25.5t-76 -68t-60.5 -106t-47 -131.5t-35.5 -152.5t-27 -160.5t-19.5 -165z" />
    <glyph glyph-name="afii10018" unicode="&#x411;" horiz-adv-x="1249"
d="M164 0v1536h792l25 -113h-678v-426h12q6 3 17.5 8t52.5 18.5t88 20t123.5 12.5t159.5 -3q55 -4 107 -22t104.5 -56t91.5 -92.5t63.5 -138.5t24.5 -187q0 -138 -26.5 -240t-78 -167.5t-121 -101.5t-161.5 -50q-113 -13 -245.5 -12.5t-241.5 7.5zM303 104q28 -4 76 -8.5
t172.5 -4t220.5 17.5q236 40 236 450q0 42 -8 89t-27 99t-47 93.5t-72 70.5t-98 33q-115 7 -195.5 5.5t-131 -9.5t-78.5 -17t-38 -17l-10 -7v-795z" />
    <glyph glyph-name="afii10019" unicode="&#x412;" horiz-adv-x="1273"
d="M164 0v1536q44 4 114.5 9t231 4.5t252.5 -19.5q73 -14 127 -43.5t84 -63t48.5 -79.5t24.5 -82t9 -82q5 -111 -34 -200t-110 -122v-12q110 -30 187.5 -124t81.5 -233q9 -209 -94.5 -339t-288.5 -150q-122 -14 -280 -14t-255 7zM305 106q36 -4 93.5 -9t194 -4.5t222.5 18.5
q83 18 142 74t84 127t22.5 150t-31 145.5t-87 111.5t-136.5 49q-195 10 -274 10l-230 -2v-670zM305 895q97 -4 234 -4h59.5t27 1t16 2t24.5 3.5t55 5.5q95 10 142.5 79t47.5 183q0 85 -37.5 154.5t-111.5 89.5q-78 22 -192.5 27t-189.5 0l-75 -6v-535z" />
    <glyph glyph-name="afii10020" unicode="&#x413;" horiz-adv-x="741"
d="M82 0v1536h676l24 -113h-559v-1423h-141z" />
    <glyph glyph-name="afii10021" unicode="&#x414;" horiz-adv-x="1470"
d="M123 104h108v170q0 206 6.5 357t13 236t25.5 165.5t29 108t39 102.5q43 113 138 196.5t229 102.5q97 10 214.5 5.5t215.5 -15.5l98 -10v-1418h109l-11 -243h-118l-11 139h-944l-12 -139h-117zM371 104h729v1323q-9 1 -25.5 3t-64.5 5.5t-93.5 5t-103 -0.5t-102.5 -10
q-80 -13 -141.5 -68.5t-90.5 -124.5q-34 -81 -50.5 -134.5t-32 -158t-20.5 -260.5t-5 -410v-170z" />
    <glyph glyph-name="afii10022" unicode="&#x415;" horiz-adv-x="1177"
d="M164 0v1536h880l-20 -113h-721v-542h610l-26 -113h-584v-664h752v-104h-891z" />
    <glyph glyph-name="afii10024" unicode="&#x416;" horiz-adv-x="1832"
d="M102 0l439 817l-373 719h156l309 -664h196v652l140 24v-676h192l348 664h154l-412 -719l480 -817h-156l-412 760h-194v-748l-140 -24v772h-198l-363 -760h-166z" />
    <glyph glyph-name="afii10025" unicode="&#x417;" horiz-adv-x="1310"
d="M123 174l29 180q2 -6 6.5 -15.5t22.5 -36.5t40 -52t60.5 -55.5t82.5 -52.5t107.5 -37t134.5 -15q34 0 72 6t85.5 20t89.5 41.5t78 65.5t57.5 97t21.5 131q0 84 -22.5 148.5t-58 99t-72.5 51t-73 16.5q-10 0 -86.5 1t-138.5 1l-264 -2l31 117q90 -4 231 -4q54 0 116 2
t70 2q25 0 52 7t58 25.5t54.5 46.5t39.5 74.5t16 104.5q0 21 -5.5 49.5t-27 74.5t-56.5 82.5t-103 63.5t-157 27q-75 0 -146.5 -20t-119.5 -48t-85.5 -56.5t-54.5 -48.5l-18 -20l29 182q4 5 12 13.5t40 29.5t72.5 37t113 29.5t157.5 13.5q226 0 357 -104.5t131 -304.5
q0 -30 -3 -57.5t-6.5 -48.5t-11 -41.5t-13 -34t-16 -29t-16.5 -23.5t-18 -19.5t-16.5 -15t-16.5 -13.5t-14 -11v-12q176 -113 176 -385q0 -37 -2.5 -68.5t-14.5 -81.5t-32.5 -89.5t-61 -83.5t-95.5 -73.5t-141 -49t-192 -19.5q-104 0 -192.5 19.5t-140 47t-88 55t-50.5 46.5
z" />
    <glyph glyph-name="afii10026" unicode="&#x418;" horiz-adv-x="1337"
d="M164 0v1524l139 24v-1249h14l717 1237h140v-1536h-140v1237h-12l-719 -1237h-139z" />
    <glyph glyph-name="afii10027" unicode="&#x419;" horiz-adv-x="1337"
d="M164 0v1524l139 24v-1249h14l717 1237h140v-1536h-140v1237h-12l-719 -1237h-139zM399 1853l131 13q1 -7 2.5 -19.5t10.5 -44t22.5 -55.5t41 -44t63.5 -20q40 0 69 19t42 45.5t20 53.5t7 46l1 19l133 -13q0 -108 -74 -187t-198 -79q-121 0 -196 79t-75 187z" />
    <glyph glyph-name="afii10028" unicode="&#x41a;" horiz-adv-x="1327"
d="M164 0v1524l139 24v-678q100 -6 223 0q137 9 199 150q15 34 64.5 163t92.5 241l42 112h159q-188 -455 -221 -539q-39 -97 -119 -147v-12q81 -19 147 -94.5t99 -170.5l195 -573h-162l-172 563q-12 38 -24.5 63t-35 50t-58.5 38.5t-87 16.5q-63 4 -148.5 4t-139.5 -2
l-54 -2v-731h-139z" />
    <glyph glyph-name="afii10029" unicode="&#x41b;" horiz-adv-x="1351"
d="M143 0v274q0 197 16.5 373.5t39 288.5t46.5 195.5t39 120t17 36.5q43 95 133 168.5t189 85.5q99 9 224.5 7.5t232.5 -7.5l108 -6v-1536h-139v1427q-11 1 -30 3t-73.5 5.5t-104.5 4.5t-111.5 -1t-106.5 -9q-56 -8 -110 -58t-83 -108q-6 -13 -15.5 -37.5t-34.5 -114.5
t-44.5 -194.5t-35 -278.5t-15.5 -365v-274h-142z" />
    <glyph glyph-name="afii10030" unicode="&#x41c;" horiz-adv-x="1529"
d="M168 0v1536h135l455 -784h14l455 784h133v-1536h-133v1303h-15l-381 -672h-135l-381 672h-12v-1303h-135z" />
    <glyph glyph-name="afii10031" unicode="&#x41d;" horiz-adv-x="1382"
d="M164 0v1524l141 24v-698h774v686h140v-1536h-140v737h-774v-737h-141z" />
    <glyph glyph-name="afii10032" unicode="&#x41e;" horiz-adv-x="1359"
d="M102 768q0 178 27.5 313.5t76.5 224t122.5 143.5t159 78t192.5 23t192.5 -23t159 -78t122 -143.5t76 -224t27.5 -313.5q0 -220 -41 -374.5t-119.5 -242.5t-180 -126.5t-236.5 -38.5q-107 0 -192.5 23.5t-159 79.5t-122.5 144.5t-76.5 223t-27.5 311.5zM246 768
q1 -185 29 -316.5t84.5 -210.5t135 -115t185.5 -36t185.5 36t135 115t84.5 210.5t29 316.5q-1 352 -110 511t-324 159t-324 -159t-110 -511z" />
    <glyph glyph-name="afii10033" unicode="&#x41f;" horiz-adv-x="1372"
d="M164 0v1536h1044v-1536h-139v1423h-766v-1423h-139z" />
    <glyph glyph-name="afii10034" unicode="&#x420;" horiz-adv-x="1241"
d="M164 0v1536q11 1 31 2.5t79.5 5t117.5 5t136 0.5t144 -7q72 -6 134 -22t125 -53t107.5 -90.5t72.5 -140t28 -196.5q0 -124 -22 -217.5t-61 -154.5t-97.5 -99t-126 -53.5t-152.5 -15.5q-84 0 -152.5 7.5t-106 19t-63 22.5t-33.5 19l-8 7h-12v-575h-141zM305 666
q13 -6 41 -15t133.5 -24t233.5 -15q154 0 220 100t66 318q0 78 -16.5 141t-43.5 105t-64.5 72.5t-76 46.5t-81.5 24q-96 17 -199 18t-158 -7l-55 -7v-757z" />
    <glyph glyph-name="afii10035" unicode="&#x421;" horiz-adv-x="1257"
d="M164 768q0 171 29.5 305t81.5 223t128 146.5t164.5 82.5t194.5 25q70 0 132 -9.5t100.5 -22.5t67 -26t40.5 -22l12 -10l-24 -174q-4 6 -11.5 16.5t-36.5 36.5t-63.5 46t-93 36.5t-123.5 16.5q-215 0 -334.5 -166.5t-120.5 -503.5q1 -179 34 -311t95 -211.5t145.5 -117.5
t190.5 -38q55 0 114.5 18t105.5 44t84 52t58 44l21 18l-20 -168q-4 -5 -12.5 -12.5t-40 -26.5t-69.5 -34t-103 -27t-138 -12q-107 0 -196 24.5t-166.5 81.5t-131 145.5t-84 223t-30.5 307.5z" />
    <glyph glyph-name="afii10036" unicode="&#x422;" horiz-adv-x="1124"
d="M41 1409v127h1042v-127l-452 14v-1423h-139v1423z" />
    <glyph glyph-name="afii10037" unicode="&#x423;" horiz-adv-x="1370"
d="M164 883v641l139 24v-657q0 -41 13.5 -85.5t43.5 -89t73 -79t108 -56.5t141 -22q74 0 141.5 16.5t110 40.5t74 48t45.5 40l14 17v815h139v-1167q0 -178 -142.5 -280.5t-397.5 -102.5q-90 0 -171 13.5t-132 33t-89 39.5t-54 34l-17 13l37 200q2 -5 7 -13t23.5 -32
t40.5 -45.5t58.5 -48t77.5 -45.5t98.5 -32t120.5 -13q87 0 158 21.5t115 55.5t74 77t42 84t12 80v208h-12q-25 -63 -131 -116.5t-238 -53.5q-116 0 -215 36t-165.5 96.5t-104 139.5t-37.5 165z" />
    <glyph glyph-name="afii10038" unicode="&#x424;" horiz-adv-x="1560"
d="M143 924q0 298 163.5 462t473.5 164q164 0 287.5 -46t199 -130t113 -197t37.5 -253q0 -138 -29 -246.5t-78.5 -181.5t-123.5 -125t-154.5 -80.5t-181.5 -44.5v-246h-139v246q-103 8 -185.5 32.5t-155.5 74.5t-122 124.5t-77 187.5t-28 259zM283 928q0 -100 13.5 -181.5
t36 -138t57 -99.5t69.5 -69t80.5 -43.5t84.5 -25t87 -11.5v1078q-195 -6 -311.5 -148t-116.5 -362zM850 360q49 6 98 22.5t111 58t108.5 100.5t78.5 160t32 227q0 77 -15.5 149.5t-49.5 138.5t-83 115t-121 78t-159 29v-1078z" />
    <glyph glyph-name="afii10039" unicode="&#x425;" horiz-adv-x="1296"
d="M61 0l525 793v12l-486 731h183l370 -610h13l368 610h183l-486 -731v-12l524 -793h-182l-407 672h-13l-409 -672h-183z" />
    <glyph glyph-name="afii10040" unicode="&#x426;" horiz-adv-x="1439"
d="M164 0v1524l139 22v-1433h774v1423h142v-1423h139l-12 -252h-107l-10 139h-1065z" />
    <glyph glyph-name="afii10041" unicode="&#x427;" horiz-adv-x="1329"
d="M143 913v611l140 24v-635q0 -31 10 -65t37 -73.5t68 -71t110.5 -52t157.5 -20.5q66 0 121.5 4.5t91.5 12.5t64.5 17t43.5 18t24.5 17t12.5 12l2 5v819h139v-1536h-139v602h-12q-1 -3 -5.5 -9t-27.5 -20.5t-56.5 -25.5t-101.5 -20t-155 -9q-132 0 -236 34t-165 91.5
t-92.5 126t-31.5 143.5z" />
    <glyph glyph-name="afii10042" unicode="&#x428;" horiz-adv-x="1914"
d="M164 0v1524l141 24v-1444h584v1420l139 24v-1444h584v1432h139v-1536h-1587z" />
    <glyph glyph-name="afii10043" unicode="&#x429;" horiz-adv-x="1992"
d="M164 0v1524l141 22v-1442h584v1420l139 22v-1442h584v1432h139v-1432h139l-10 -243h-106l-11 139h-1599z" />
    <glyph glyph-name="afii10044" unicode="&#x42a;" horiz-adv-x="1394"
d="M0 1421v129h383v-448h12q5 4 13.5 10t40 21.5t68 27.5t95.5 21.5t123 9.5q84 0 157 -17.5t140 -60.5t114.5 -109t76 -170t28.5 -237q0 -612 -518 -612q-212 0 -351.5 102t-139.5 264v1086zM383 352q0 -44 21.5 -88.5t62 -83.5t109.5 -63.5t155 -24.5q379 0 379 508
q0 227 -95 352t-280 125q-79 0 -144.5 -6.5t-102.5 -16.5t-62 -19.5t-34 -16.5l-9 -6v-660z" />
    <glyph glyph-name="afii10045" unicode="&#x42b;" horiz-adv-x="1619"
d="M164 348v1176l139 24v-456h12q4 4 12.5 9.5t39 21t66 27t94.5 21t124 9.5q84 0 156 -17t139 -59.5t114 -107.5t75 -168.5t28 -235.5q0 -606 -514 -606q-210 0 -347.5 100.5t-137.5 261.5zM303 348q0 -43 21 -87t61 -83t108.5 -63.5t153.5 -24.5q375 0 375 504
q0 225 -94 350t-277 125q-79 0 -143.5 -7t-101 -17t-61.5 -20t-33 -17l-9 -7v-653zM1317 0v1536h139v-1536h-139z" />
    <glyph glyph-name="afii10046" unicode="&#x42c;" horiz-adv-x="1304"
d="M164 348v1174l139 24v-454h12q4 4 12.5 9.5t39 21t66 27t94.5 21t124 9.5q106 0 193 -29t160.5 -94t115 -183t41.5 -282q0 -606 -512 -606q-210 0 -347.5 100.5t-137.5 261.5zM303 348q0 -43 21 -87t61 -83t108.5 -63.5t153.5 -24.5q375 0 375 502q0 227 -94 351
t-277 124q-78 0 -142.5 -7t-101 -16.5t-61.5 -19t-34 -16.5l-9 -7v-653z" />
    <glyph glyph-name="afii10047" unicode="&#x42d;" horiz-adv-x="1257"
d="M123 266q8 -7 21.5 -19t56.5 -42.5t86 -53.5t103.5 -42t115.5 -19q218 0 340 160t125 504q-37 0 -165 1t-175 1l-385 -4l30 116q220 -2 363 -2q53 0 173 1t157 1q-20 287 -137.5 428.5t-315.5 141.5q-65 0 -123 -15.5t-94 -38t-62.5 -45t-37.5 -37.5l-11 -16l-24 174
q4 4 12.5 10t40 21.5t68.5 27.5t99.5 21.5t131.5 9.5q598 0 598 -782q0 -173 -30.5 -307.5t-84 -223t-131 -145.5t-166.5 -81.5t-196 -24.5q-73 0 -137.5 11.5t-104 28t-68.5 33t-41 27.5l-12 12z" />
    <glyph glyph-name="afii10048" unicode="&#x42e;" horiz-adv-x="1718"
d="M164 0v1524l139 24v-684h197q4 163 29.5 282.5t68 197t108.5 123.5t144 64.5t182 18.5q107 0 189 -23t150.5 -78t112 -144t67.5 -223t24 -314q0 -221 -35.5 -374.5t-107.5 -242t-169 -127t-231 -38.5q-128 0 -222 39t-163 125.5t-105.5 229.5t-41.5 345h-197v-725h-139z
M641 768q1 -372 90 -525t301 -153q142 0 228 66t128.5 214.5t43.5 397.5q-1 359 -95.5 514.5t-304.5 155.5t-299.5 -154t-91.5 -516z" />
    <glyph glyph-name="afii10049" unicode="&#x42f;" horiz-adv-x="1318"
d="M102 0q68 282 107 455q31 151 119 227v14q-90 50 -134 132t-44 223q0 118 24.5 206t64 141t101.5 86t126 46t148 16q135 5 255 3t203 -7l83 -6v-1536h-139v700h-12q-70 -41 -211 -55q-62 -5 -124 -7t-97.5 -2t-39.5 -1q-38 -2 -68 -16t-47 -30t-32 -47t-21 -49.5
t-16 -56.5q-46 -197 -106 -436h-140zM289 1038q0 -133 69 -209.5t207 -76.5q157 0 270 8t147 16l34 8v652q-155 6 -428 -2q-299 -8 -299 -396z" />
    <glyph glyph-name="afii10065" unicode="&#x430;" horiz-adv-x="1171"
d="M82 305q0 122 54 199t179 131q110 48 408 76q86 8 86 92q0 37 -4 69q-1 3 -2 9q-6 29 -14.5 48.5t-34 49t-83 41.5t-141.5 4q-82 -7 -163.5 -38t-122.5 -58l-41 -27l16 154q3 2 10 6.5t33.5 15t58.5 20t87.5 18.5t119.5 13q93 6 167.5 -9t120.5 -43t76.5 -68t42.5 -80.5
t13 -83.5q17 -471 17 -580t73 -125q39 -11 48.5 -50t-15.5 -69t-70 -18q-91 25 -110 115h-12q-48 -60 -88 -85t-99 -34q-2 0 -27 -2.5t-63 -5.5t-70 -4q-450 -10 -450 319zM223 295q0 -31 5 -55t24 -54t51.5 -49.5t94 -33t145.5 -13.5q70 0 123.5 14.5t82.5 35t47 48
t23.5 49.5t5.5 44h2l-14 374h-12q-2 -5 -5.5 -12t-20.5 -20t-40 -17q-5 -1 -60.5 -7t-92.5 -12t-91 -16t-94.5 -24.5t-64.5 -32.5q-66 -51 -87.5 -99t-21.5 -120z" />
    <glyph glyph-name="afii10066" unicode="&#x431;" horiz-adv-x="1167"
d="M164 352v778q0 136 84.5 242t214.5 121l381 43l92 -133q-332 0 -453 -23q-73 -13 -125.5 -92.5t-52.5 -157.5v-83h12q69 90 283 90q204 0 324 -138.5t120 -423.5q0 -32 -1 -60t-6 -74t-13.5 -85.5t-25.5 -87.5t-40 -86t-58 -76t-78.5 -63.5t-104 -41t-131.5 -15.5
q-104 0 -183.5 29t-123 70t-71.5 94.5t-36 94.5t-8 78zM305 348q0 -39 17 -81.5t50 -83t92 -67t132 -26.5q80 0 140.5 34.5t94.5 85.5t55 120t27.5 127t6.5 118q0 71 -8.5 133t-32 123t-59.5 104t-95.5 70t-136.5 27q-64 0 -117 -9t-82.5 -22t-49.5 -26t-27 -22l-7 -9v-596z
" />
    <glyph glyph-name="afii10067" unicode="&#x432;" horiz-adv-x="1122"
d="M164 276v840q204 14 362 14q39 0 70 -1t80 -7.5t86 -17t79 -32t69 -50.5t45 -74t18 -102q0 -137 -86 -195v-12q30 -11 57.5 -30t55.5 -52t44.5 -87.5t16.5 -123.5q0 -360 -471 -360h-8q-30 0 -48 0.5t-54.5 3t-61.5 7t-61 14.5t-60.5 24t-51.5 36.5t-43 50.5t-27 67.5
t-11 86.5zM303 260q0 -54 45.5 -93.5t112 -58t141.5 -18.5q62 0 111 8.5t82 22t57 34.5t36.5 41.5t20 48t9.5 49.5t2 50q0 111 -35.5 161t-110.5 50h-471v-295zM303 666h397q28 0 50 10.5t35 25t23 38t14 40t6.5 40t2.5 29.5v17q0 14 -3 27t-9 24t-12 20.5t-13 17.5
t-12 13.5t-10 9.5l-6 5q-50 35 -208.5 41t-254.5 -16v-342z" />
    <glyph glyph-name="afii10068" unicode="&#x433;" horiz-adv-x="901"
d="M164 0v1116h633l32 -147q-3 5 -21 12t-150.5 19t-354.5 12v-1012h-139z" />
    <glyph glyph-name="afii10069" unicode="&#x434;" horiz-adv-x="1118"
d="M61 -219l29 323h107q-41 119 -41 248q0 204 59 371q0 1 9 29t18 52t26 62.5t38.5 71.5t49.5 67t65 60t79 41q40 15 77.5 19.5t124.5 4.5q75 0 138 -4t88 -8l26 -4v-1010h74l29 -323h-58l-104 219h-672l-104 -219h-58zM289 270q0 -83 18 -166h508v916q-51 4 -102 6
q-68 2 -121 -15.5t-89 -46t-67 -79.5t-50.5 -98.5t-43.5 -120.5q-53 -164 -53 -396z" />
    <glyph glyph-name="afii10070" unicode="&#x435;" horiz-adv-x="1110"
d="M102 569q0 127 22.5 224.5t60 159.5t93.5 102t117.5 56.5t136.5 18.5q229 6 352.5 -101t123.5 -324q0 -29 -3 -67t-7 -62l-3 -23l-751 -10q0 -66 6.5 -123t27 -120t53.5 -107.5t91 -73.5t135 -29t147.5 18t116 43.5t79.5 51t50 43.5l15 18l-31 -174q-5 -4 -15 -11
t-45.5 -25t-76.5 -32t-108.5 -25t-141.5 -11q-85 0 -153.5 21t-114 54.5t-79.5 83.5t-52 99t-29 111t-14 109.5t-3 104.5zM244 655l635 11q1 68 -7 119.5t-30 98.5t-59.5 77t-97 47.5t-140.5 17.5q-301 0 -301 -371z" />
    <glyph glyph-name="afii10072" unicode="&#x436;" horiz-adv-x="1431"
d="M82 0l299 573l-266 543h145l207 -473h174v461l139 24v-485h164l219 473h154l-277 -543l310 -573h-138l-266 530h-166v-514l-139 -26v540h-172l-240 -530h-147z" />
    <glyph glyph-name="afii10073" unicode="&#x437;" horiz-adv-x="1030"
d="M72 106l20 166l19.5 -19.5t52 -44t80.5 -55.5t101.5 -43.5t117.5 -19.5q158 0 234.5 67.5t76.5 170.5q0 92 -39 148t-86 56h-78h-366l22 115q278 -2 344 -2q10 0 30.5 1t25.5 1q47 0 80.5 40.5t33.5 127.5q0 55 -26 97.5t-68 66t-89 35.5t-95 12q-55 0 -107.5 -14.5
t-88 -35t-63.5 -41.5t-41 -35l-13 -15l24 174q45 30 119 50.5t160 20.5q120 0 206 -25t133 -70.5t68 -99.5t21 -120q0 -95 -33 -146.5t-74 -72.5v-12q13 -5 32.5 -20t43.5 -41.5t40.5 -71t16.5 -95.5q0 -65 -11 -116.5t-41 -100.5t-80 -81.5t-131.5 -52t-190.5 -19.5
q-72 0 -138 12.5t-108.5 30t-74.5 35t-46 30.5z" />
    <glyph glyph-name="afii10074" unicode="&#x438;" horiz-adv-x="1222"
d="M164 264v840l139 24v-866q0 -66 35.5 -119t103.5 -53q49 0 101.5 24t97.5 62t88.5 84t77.5 92t59.5 84t39.5 62l14 24v594h139v-1116h-139v385h-13q-3 -8 -10 -22.5t-30 -56t-49.5 -79t-69.5 -83.5t-89 -79.5t-108 -56t-127 -22.5q-136 0 -198 77.5t-62 200.5z" />
    <glyph glyph-name="afii10075" unicode="&#x439;" horiz-adv-x="1222"
d="M164 264v840l139 24v-866q0 -66 35.5 -119t103.5 -53q49 0 101.5 24t97.5 62t88.5 84t77.5 92t59.5 84t39.5 62l14 24v594h139v-1116h-139v385h-13q-3 -8 -10 -22.5t-30 -56t-49.5 -79t-69.5 -83.5t-89 -79.5t-108 -56t-127 -22.5q-136 0 -198 77.5t-62 200.5zM332 1434
l133 12q0 -7 1.5 -19.5t10.5 -44t22.5 -55.5t41 -43.5t63.5 -19.5q39 0 68 18.5t42 45.5t20.5 54t7.5 46l1 18l131 -12q0 -109 -73.5 -189t-196.5 -80q-121 0 -196.5 80.5t-75.5 188.5z" />
    <glyph glyph-name="afii10076" unicode="&#x43a;" horiz-adv-x="1142"
d="M164 0v1108l139 22v-471l229 3q36 0 70 12q44 17 83.5 64t53.5 96q9 28 26.5 98.5t30.5 127.5l13 56h135q-52 -211 -70 -293q-28 -111 -124 -198v-13q61 -40 103.5 -103t55.5 -134l90 -375h-155q-45 293 -76 367q-54 137 -129 165q-37 13 -70 13l-266 2v-547h-139z" />
    <glyph glyph-name="afii10077" unicode="&#x43b;" horiz-adv-x="1153"
d="M143 0v266q0 83 17 224t49 233q113 316 305 383q40 15 77.5 19.5t125.5 4.5q75 0 143 -3.5t98 -6.5l31 -4v-1116h-139v1020q-72 4 -123 6q-68 2 -123 -15t-94.5 -47t-72.5 -78.5t-55.5 -99.5t-45.5 -120q-53 -164 -53 -396v-270h-140z" />
    <glyph glyph-name="afii10078" unicode="&#x43c;" horiz-adv-x="1323"
d="M164 0v1116h139l356 -932h13l348 932h139v-1116h-139v799h-12l-277 -799h-131l-285 799h-12v-799h-139z" />
    <glyph glyph-name="afii10079" unicode="&#x43d;" horiz-adv-x="1187"
d="M164 0v1104l139 24v-462h582v450h139v-1116h-139v553h-582v-553h-139z" />
    <glyph glyph-name="afii10080" unicode="&#x43e;" horiz-adv-x="1073"
d="M61 571q0 123 26 220t70.5 159.5t107 104t130.5 58.5t146 17q221 0 346 -149.5t125 -409.5q0 -91 -12 -170t-44.5 -157.5t-83.5 -133.5t-136 -89.5t-195 -34.5q-68 0 -132.5 17.5t-129 60.5t-112 108t-77 167.5t-29.5 231.5zM199 571q0 -111 21.5 -197t55.5 -138.5
t81.5 -86t95 -46.5t100.5 -13q61 0 110 16t82 42t57.5 66t38 79.5t21 91t10 93.5t2.5 93q0 71 -9 133.5t-32 122.5t-58 103t-92 69.5t-130 26.5q-83 0 -147.5 -30t-102.5 -75.5t-62.5 -108.5t-33 -121t-8.5 -120z" />
    <glyph glyph-name="afii10081" unicode="&#x43f;" horiz-adv-x="1173"
d="M164 0v1116h846v-1116h-140v1026h-567v-1026h-139z" />
    <glyph glyph-name="afii10082" unicode="&#x440;" horiz-adv-x="1097"
d="M164 -430v1534l112 24l7 -77h12q23 38 110.5 58.5t169.5 20.5q96 0 174 -32t139 -100t94.5 -185t33.5 -276q0 -258 -119 -404.5t-346 -146.5q-169 0 -236 80h-12v-474zM303 182q4 -4 11 -10t32.5 -22t53 -28t71.5 -22t90 -10q155 0 236.5 122.5t81.5 324.5q0 35 -1.5 69
t-8.5 85t-18.5 94t-34 89t-52 78.5t-75 53t-101.5 20.5q-57 0 -107.5 -6.5t-81.5 -15t-54 -17.5t-33 -15l-9 -7v-783z" />
    <glyph glyph-name="afii10083" unicode="&#x441;" horiz-adv-x="1019"
d="M104 567q-2 127 26.5 228t74 162.5t106.5 101.5t119 55.5t117 15.5q68 0 129.5 -9t101 -22t69.5 -26t43 -22l13 -9l-31 -159q-3 6 -10 16t-33 35t-58.5 44.5t-88.5 35t-121 14.5q-324 -4 -319 -459q3 -178 17 -246q30 -149 145 -200q73 -33 186 -33q57 0 111.5 19t92 46
t67 54t43.5 46l14 19l-21 -178q-3 -4 -10.5 -11.5t-34.5 -26.5t-60 -33.5t-90 -26.5t-122 -12q-96 0 -172 22t-125 53t-84 85t-52.5 97t-27.5 112.5t-12 107.5t-3 104z" />
    <glyph glyph-name="afii10084" unicode="&#x442;" horiz-adv-x="978"
d="M61 1018v98h857v-98l-359 8v-1026h-139v1026z" />
    <glyph glyph-name="afii10085" unicode="&#x443;" horiz-adv-x="1165"
d="M143 356v748l142 22v-774q0 -28 7.5 -59.5t28 -68.5t51 -66t82 -48.5t115.5 -19.5q77 0 135.5 7.5t87 18t46 21t20.5 17.5l4 8v954h139v-1118q0 -52 -3.5 -93t-15 -86t-31 -78t-53 -64.5t-79 -51t-111.5 -31.5t-149 -12q-74 0 -142.5 12.5t-113.5 30t-78.5 35.5t-48.5 30
l-16 13l30 133q5 -6 15.5 -15t46 -32.5t76 -41.5t106 -33t135.5 -15q158 0 225.5 54.5t67.5 178.5v129h-12q-2 -3 -6.5 -8t-25 -18t-49.5 -23t-85 -18t-125 -8q-78 0 -143 18.5t-109 50t-77 69.5t-51.5 80.5t-27 80t-8.5 71.5z" />
    <glyph glyph-name="afii10086" unicode="&#x444;" horiz-adv-x="1255"
d="M102 565q0 258 108 396t349 155v254l139 23v-277q235 -18 345 -156.5t110 -394.5q0 -103 -10.5 -181t-40 -152.5t-79.5 -123.5t-131.5 -82t-193.5 -40v-265h-139v265q-84 6 -151 25.5t-114.5 48t-82 71t-55.5 88t-33 105t-16.5 115.5t-4.5 126zM236 565q0 -54 1 -89
t8 -88t19 -88t36 -76t57.5 -66.5t84.5 -45t117 -24.5v928q-88 -5 -152 -41.5t-100.5 -98.5t-53.5 -139t-17 -172zM698 88q62 5 111 23t82 43t57.5 63t38 75t21.5 87t10 91.5t2 94.5q0 75 -11 139.5t-36 121t-62 97t-91 65t-122 28.5v-928z" />
    <glyph glyph-name="afii10087" unicode="&#x445;" horiz-adv-x="1103"
d="M61 0l398 567v13l-377 536h186l277 -442h14l277 442h186l-377 -536v-13l397 -567h-186l-299 471h-12l-299 -471h-185z" />
    <glyph glyph-name="afii10088" unicode="&#x446;" horiz-adv-x="1314"
d="M164 242v862l139 24v-886q0 -50 42 -93.5t93 -44.5h475v1012h140v-1012h139l-10 -243h-107l-12 139h-619q-113 0 -196.5 69.5t-83.5 172.5z" />
    <glyph glyph-name="afii10089" unicode="&#x447;" horiz-adv-x="1083"
d="M82 573v531l139 24v-577q0 -16 5.5 -35.5t24 -46t48.5 -47.5t86 -36t129 -15q64 0 114.5 6.5t77.5 16.5t45 19.5t23 16.5l6 6v680h140v-1116h-140v348h-12q-2 -3 -6 -8.5t-23.5 -20t-46 -25t-77.5 -19.5t-113 -9q-120 0 -205.5 25.5t-130.5 71t-64.5 97t-19.5 113.5z" />
    <glyph glyph-name="afii10090" unicode="&#x448;" horiz-adv-x="1550"
d="M164 256v848l139 24l-12 -872q0 -50 47.5 -100.5t97.5 -51.5h269v1000l139 24v-1024h268q50 1 97.5 51.5t47.5 100.5l-12 860h141v-860q0 -111 -81.5 -182.5t-192.5 -73.5h-670q-117 0 -197.5 67t-80.5 189z" />
    <glyph glyph-name="afii10091" unicode="&#x449;" horiz-adv-x="1587"
d="M164 256v848l151 24l-12 -872q0 -51 42.5 -101t90.5 -51h269v1000l141 24v-1024h401v1012h139v-1012h140l-10 -243h-119l-11 139h-944q-115 0 -196.5 69t-81.5 187z" />
    <glyph glyph-name="afii10092" unicode="&#x44a;" horiz-adv-x="1253"
d="M88 999l23 117h303v-104v-217h12q2 1 16 7.5t30 11.5t43 11t71 9.5t100 3.5q207 0 325.5 -106.5t118.5 -319.5q0 -89 -25 -164t-76.5 -134.5t-139 -93.5t-203.5 -34q-96 0 -172 24t-119.5 60t-72 83t-38.5 86.5t-10 77.5v695zM414 313q0 -35 18 -73t51 -72t89 -56
t124 -22q74 0 130 23t87 57t50 81.5t24.5 87t5.5 83.5q0 160 -72 235.5t-225 75.5q-89 0 -159.5 -7t-96.5 -14l-26 -7v-392z" />
    <glyph glyph-name="afii10093" unicode="&#x44b;" horiz-adv-x="1398"
d="M164 317v787l139 24v-333h12q2 1 16 7.5t30 11.5t43 11t71 9.5t100 3.5q207 0 326 -106.5t119 -319.5q0 -89 -25.5 -164t-77 -134.5t-139 -93.5t-203.5 -34q-96 0 -172 24t-119.5 60t-71.5 83t-38 86.5t-10 77.5zM303 313q0 -35 18 -73t51.5 -72t89.5 -56t124 -22
q74 0 130 23t87 57t50 81.5t24.5 87t5.5 83.5q0 160 -72 235.5t-225 75.5q-89 0 -160 -7t-97 -14l-26 -7v-392zM1137 0v1116h139v-1116h-139z" />
    <glyph glyph-name="afii10094" unicode="&#x44c;" horiz-adv-x="1122"
d="M164 317v787l139 24v-333h12q2 1 16 7.5t30 11.5t43 11t71 9.5t100 3.5q207 0 326 -106.5t119 -319.5q0 -89 -25.5 -164t-77 -134.5t-139 -93.5t-203.5 -34q-96 0 -172 24t-119.5 60t-71.5 83t-38 86.5t-10 77.5zM303 313q0 -35 18 -73t51.5 -72t89.5 -56t124 -22
q74 0 130 23t87 57t50 81.5t24.5 87t5.5 83.5q0 160 -72 235.5t-225 75.5q-89 0 -160 -7t-97 -14l-26 -7v-392z" />
    <glyph glyph-name="afii10095" unicode="&#x44d;" horiz-adv-x="1019"
d="M102 272q5 -7 14.5 -19.5t42 -44t68 -55.5t91 -43.5t112.5 -19.5q54 0 99 8t78.5 20.5t59.5 35t43.5 44t30 55.5t19 61.5t10.5 70t5 73t1 77.5h-520l23 112h497q-22 376 -317 381q-65 1 -121 -14t-89.5 -36.5t-58 -43t-34.5 -36.5l-9 -15l-30 159q5 4 14 9.5t41.5 21
t70.5 27t100 21t130 9.5q59 0 116.5 -15.5t118.5 -55.5t106 -101.5t73.5 -162t27.5 -228.5q-3 -185 -29 -279q-72 -269 -368 -298q-37 -4 -78 -4q-66 0 -123 11.5t-91 27.5t-58.5 32t-34.5 27l-10 12z" />
    <glyph glyph-name="afii10096" unicode="&#x44e;" horiz-adv-x="1470"
d="M164 0v1104l139 24v-481h158q6 109 34 194t70.5 138.5t100.5 88t119.5 48.5t132.5 14q220 0 335 -145t115 -414q0 -93 -10 -170t-39 -157t-77.5 -134.5t-131 -89t-192.5 -34.5q-63 0 -122.5 16t-118 54.5t-102.5 96.5t-74.5 149.5t-37.5 205.5h-160v-508h-139zM598 571
q0 -481 332 -481q61 0 109 16.5t79 41.5t53.5 66.5t33.5 78.5t17.5 92.5t7.5 92.5t1 93q0 76 -7 137.5t-26.5 122.5t-52 102.5t-87.5 67t-128 25.5q-79 0 -140 -29t-96.5 -73.5t-58 -107t-30 -121t-7.5 -124.5z" />
    <glyph glyph-name="afii10097" unicode="&#x44f;" horiz-adv-x="1130"
d="M102 0q42 205 58 283q9 40 21 69.5t29 51.5t28.5 33.5t34.5 30t32 26.5v14q-69 33 -96 58q-82 75 -82 231q0 154 112 243.5t302 89.5q84 0 190.5 -3.5t170.5 -6.5l65 -4v-1116h-140v508h-12q-1 -2 -3 -5t-14.5 -12t-31 -17t-55 -16.5t-82.5 -13.5q-34 0 -118.5 -4.5
t-107.5 -13.5q-10 -4 -19 -10t-16.5 -15t-13.5 -15.5t-12.5 -20.5t-9.5 -20t-9 -23t-8 -21.5t-7.5 -23.5t-6.5 -21l-49 -256h-150zM264 797q0 -76 17 -125t55 -75t88 -36t127 -10q66 0 119 5t81 11.5t46.5 13.5t24.5 12l5 5v403q-65 25 -276 25q-74 0 -129.5 -18.5
t-84.5 -43.5t-46.5 -59.5t-22 -59t-4.5 -48.5z" />
    <glyph glyph-name="afii10071" unicode="&#x451;" horiz-adv-x="1110"
d="M102 569q0 127 22.5 224.5t60 159.5t93.5 102t117.5 56.5t136.5 18.5q229 6 352.5 -101t123.5 -324q0 -29 -3 -67t-7 -62l-3 -23l-751 -10q0 -66 6.5 -123t27 -120t53.5 -107.5t91 -73.5t135 -29t147.5 18t116 43.5t79.5 51t50 43.5l15 18l-31 -174q-5 -4 -15 -11
t-45.5 -25t-76.5 -32t-108.5 -25t-141.5 -11q-85 0 -153.5 21t-114 54.5t-79.5 83.5t-52 99t-29 111t-14 109.5t-3 104.5zM244 655l635 11q1 68 -7 119.5t-30 98.5t-59.5 77t-97 47.5t-140.5 17.5q-301 0 -301 -371zM338 1300l35 144h143l-35 -144h-143zM614 1300l35 144
h146l-35 -144h-146z" />
    <glyph glyph-name="uni2000" unicode="&#x2000;" horiz-adv-x="933"
 />
    <glyph glyph-name="uni2001" unicode="&#x2001;" horiz-adv-x="1866"
 />
    <glyph glyph-name="uni2002" unicode="&#x2002;" horiz-adv-x="933"
 />
    <glyph glyph-name="uni2003" unicode="&#x2003;" horiz-adv-x="1866"
 />
    <glyph glyph-name="uni2004" unicode="&#x2004;" horiz-adv-x="622"
 />
    <glyph glyph-name="uni2005" unicode="&#x2005;" horiz-adv-x="466"
 />
    <glyph glyph-name="uni2006" unicode="&#x2006;" horiz-adv-x="311"
 />
    <glyph glyph-name="uni2007" unicode="&#x2007;" horiz-adv-x="311"
 />
    <glyph glyph-name="uni2008" unicode="&#x2008;" horiz-adv-x="233"
 />
    <glyph glyph-name="uni2009" unicode="&#x2009;" horiz-adv-x="373"
 />
    <glyph glyph-name="uni200A" unicode="&#x200a;" horiz-adv-x="103"
 />
    <glyph glyph-name="uni2010" unicode="&#x2010;" horiz-adv-x="790"
d="M164 479l49 160h414l-52 -160h-411z" />
    <glyph glyph-name="uni2011" unicode="&#x2011;" horiz-adv-x="790"
d="M164 479l49 160h414l-52 -160h-411z" />
    <glyph glyph-name="figuredash" unicode="&#x2012;" horiz-adv-x="790"
d="M164 479l49 160h414l-52 -160h-411z" />
    <glyph glyph-name="endash" unicode="&#x2013;" horiz-adv-x="1128"
d="M164 479l51 160h750l-52 -160h-749z" />
    <glyph glyph-name="emdash" unicode="&#x2014;" horiz-adv-x="1458"
d="M164 479l51 160h1079l-51 -160h-1079z" />
    <glyph glyph-name="quoteleft" unicode="&#x2018;"
d="M164 1376q39 119 51 160q43 137 174 152l-29 -89q-36 18 -67 -3t-43 -60h125l-51 -160h-160z" />
    <glyph glyph-name="quoteright" unicode="&#x2019;"
d="M164 1225l29 88q36 -18 67 3t43 60h-125l51 160h160q-39 -119 -51 -160q-42 -135 -174 -151z" />
    <glyph glyph-name="quotesinglbase" unicode="&#x201a;"
d="M164 -152l29 89q36 -18 67 3t43 60h-125l51 160h160q-39 -119 -51 -160q-43 -137 -174 -152z" />
    <glyph glyph-name="quotedblleft" unicode="&#x201c;" horiz-adv-x="831"
d="M164 1376q39 119 51 160q43 137 174 152l-29 -89q-36 18 -67 -3t-43 -60h125l-51 -160h-160zM442 1376q40 119 52 160q43 137 174 152l-29 -89q-36 18 -68 -3t-43 -60h125l-51 -160h-160z" />
    <glyph glyph-name="quotedblright" unicode="&#x201d;" horiz-adv-x="831"
d="M164 1225l29 88q36 -18 67 3t43 60h-125l51 160h160q-39 -119 -51 -160q-42 -135 -174 -151zM442 1225l29 88q36 -18 68 3t43 60h-125l51 160h160q-40 -119 -52 -160q-42 -135 -174 -151z" />
    <glyph glyph-name="quotedblbase" unicode="&#x201e;" horiz-adv-x="831"
d="M164 -152l29 89q36 -18 67 3t43 60h-125l51 160h160q-39 -119 -51 -160q-43 -137 -174 -152zM442 -152l29 89q36 -18 68 3t43 60h-125l51 160h160q-40 -119 -52 -160q-43 -137 -174 -152z" />
    <glyph glyph-name="bullet" unicode="&#x2022;" horiz-adv-x="722"
d="M164 616q0 84 56.5 141.5t139.5 57.5t141 -58t58 -141t-57.5 -139.5t-141.5 -56.5q-83 0 -139.5 56.5t-56.5 139.5z" />
    <glyph glyph-name="ellipsis" unicode="&#x2026;" horiz-adv-x="1132"
d="M164 0l51 160h160l-51 -160h-160zM471 0l51 160h160l-51 -160h-160zM758 0l51 160h160l-51 -160h-160z" />
    <glyph glyph-name="uni202F" unicode="&#x202f;" horiz-adv-x="373"
 />
    <glyph glyph-name="uni205F" unicode="&#x205f;" horiz-adv-x="466"
 />
    <glyph glyph-name="Euro" unicode="&#x20ac;" horiz-adv-x="1355"
d="M102 729h138q0 82 2 121h-140l29 137h123q77 563 584 563q70 0 132 -9.5t100.5 -22.5t67 -26t40.5 -22l12 -10l-25 -174q-4 6 -11.5 16.5t-36.5 36.5t-63 46t-92.5 36.5t-123.5 16.5q-176 0 -289.5 -112.5t-149.5 -338.5h602l-40 -137h-576q-2 -39 -2 -121h543l-41 -137
h-492q30 -259 148 -380.5t309 -121.5q55 0 114.5 18t105.5 43.5t84 51t58 43.5l21 18l-21 -168q-4 -5 -12.5 -12.5t-39.5 -26.5t-69 -34t-103 -27t-138 -12q-120 0 -218 32t-179.5 101.5t-134 189.5t-70.5 285h-117z" />
    <glyph glyph-name="trademark" unicode="&#x2122;" horiz-adv-x="1277"
d="M164 1438v98h428v-98l-162 8v-420h-106v420zM668 1026v510h94l127 -457h12l117 457h96v-510h-96v246h-12l-45 -246h-134l-51 246h-14v-246h-94z" />
    <glyph glyph-name="uniE000" unicode="&#xe000;" horiz-adv-x="1116"
d="M0 0v1116h1116v-1116h-1116z" />
    </font>
</defs>
</svg>
